<mxfile host="Electron" modified="2024-02-15T10:56:40.552Z" agent="Mozilla/5.0 (Windows NT 10.0; Win64; x64) AppleWebKit/537.36 (KHTML, like Gecko) draw.io/23.0.2 Chrome/120.0.6099.109 Electron/28.1.0 Safari/537.36" etag="9lDdA2O1pXJS67BoDmm0" version="23.0.2" type="device">
  <diagram name="Page-1" id="-cScpESHBsWupUaVAT8I">
    <mxGraphModel dx="1434" dy="884" grid="0" gridSize="10" guides="1" tooltips="1" connect="1" arrows="1" fold="1" page="1" pageScale="1" pageWidth="1169" pageHeight="1654" math="0" shadow="0">
      <root>
        <mxCell id="0" />
        <mxCell id="1" parent="0" />
        <mxCell id="8uBbU_594jC50RYXib-e-1" value="&lt;font face=&quot;Verdana&quot;&gt;&lt;font style=&quot;font-size: 10px;&quot;&gt;&lt;br&gt;&lt;/font&gt;&lt;/font&gt;" style="rounded=1;whiteSpace=wrap;html=1;arcSize=31;fillColor=#E9D8FD;strokeColor=#9673a6;strokeWidth=0;align=center;horizontal=1;verticalAlign=middle;labelPosition=center;verticalLabelPosition=middle;padding=0;" parent="1" vertex="1">
          <mxGeometry x="78" y="77" width="120" height="83" as="geometry" />
        </mxCell>
        <mxCell id="8uBbU_594jC50RYXib-e-2" value="" style="rounded=1;whiteSpace=wrap;html=1;dashed=1;arcSize=25;dashPattern=8 8;" parent="1" vertex="1">
          <mxGeometry x="78" y="110" width="120" height="121" as="geometry" />
        </mxCell>
        <mxCell id="8uBbU_594jC50RYXib-e-3" value="&lt;font face=&quot;Inter&quot;&gt;&lt;font style=&quot;border-color: var(--border-color); font-size: 14px;&quot;&gt;&lt;b style=&quot;border-color: var(--border-color);&quot;&gt;Greenland&lt;/b&gt;&lt;/font&gt;&lt;br style=&quot;border-color: var(--border-color);&quot;&gt;&lt;font color=&quot;#616161&quot; style=&quot;border-color: var(--border-color); font-size: 10px;&quot;&gt;INLAND&lt;/font&gt;&lt;/font&gt;" style="text;html=1;strokeColor=none;fillColor=none;align=center;verticalAlign=middle;whiteSpace=wrap;rounded=0;fontFamily=Inter Bold;" parent="1" vertex="1">
          <mxGeometry x="108" y="78" width="60" height="30" as="geometry" />
        </mxCell>
        <mxCell id="8uBbU_594jC50RYXib-e-4" value="&lt;font face=&quot;Verdana&quot;&gt;&lt;font style=&quot;font-size: 10px;&quot;&gt;&lt;br&gt;&lt;/font&gt;&lt;/font&gt;" style="rounded=1;whiteSpace=wrap;html=1;arcSize=31;fillColor=#E9D8FD;strokeColor=#9673a6;strokeWidth=0;align=center;horizontal=1;verticalAlign=middle;labelPosition=center;verticalLabelPosition=middle;padding=0;" parent="1" vertex="1">
          <mxGeometry x="279" y="77" width="120" height="83" as="geometry" />
        </mxCell>
        <mxCell id="8uBbU_594jC50RYXib-e-5" value="" style="rounded=1;whiteSpace=wrap;html=1;dashed=1;arcSize=10;dashPattern=8 8;" parent="1" vertex="1">
          <mxGeometry x="279" y="107" width="306" height="323" as="geometry" />
        </mxCell>
        <mxCell id="8uBbU_594jC50RYXib-e-6" value="&lt;font face=&quot;Inter&quot;&gt;&lt;font style=&quot;border-color: var(--border-color); font-size: 14px;&quot;&gt;&lt;b style=&quot;border-color: var(--border-color);&quot;&gt;Greenland&lt;/b&gt;&lt;/font&gt;&lt;br style=&quot;border-color: var(--border-color);&quot;&gt;&lt;font color=&quot;#616161&quot; style=&quot;border-color: var(--border-color); font-size: 10px;&quot;&gt;COASTAL&lt;/font&gt;&lt;/font&gt;" style="text;html=1;strokeColor=none;fillColor=none;align=center;verticalAlign=middle;whiteSpace=wrap;rounded=0;fontFamily=Inter Bold;" parent="1" vertex="1">
          <mxGeometry x="309" y="77" width="60" height="30" as="geometry" />
        </mxCell>
        <mxCell id="8uBbU_594jC50RYXib-e-8" value="Legend" style="swimlane;whiteSpace=wrap;html=1;" parent="1" vertex="1">
          <mxGeometry x="628" y="77" width="140" height="147" as="geometry" />
        </mxCell>
        <mxCell id="8uBbU_594jC50RYXib-e-9" value="&lt;font color=&quot;#ecc94b&quot;&gt;Electricity&lt;/font&gt;" style="text;html=1;strokeColor=none;fillColor=none;align=left;verticalAlign=middle;whiteSpace=wrap;rounded=0;" parent="8uBbU_594jC50RYXib-e-8" vertex="1">
          <mxGeometry x="51" y="18" width="60" height="30" as="geometry" />
        </mxCell>
        <mxCell id="8uBbU_594jC50RYXib-e-10" value="" style="group" parent="8uBbU_594jC50RYXib-e-8" vertex="1" connectable="0">
          <mxGeometry x="7" y="32" width="133" height="120" as="geometry" />
        </mxCell>
        <mxCell id="8uBbU_594jC50RYXib-e-11" value="" style="endArrow=none;html=1;rounded=0;strokeWidth=2;strokeColor=#ECC94B;" parent="8uBbU_594jC50RYXib-e-10" edge="1">
          <mxGeometry width="50" height="50" relative="1" as="geometry">
            <mxPoint y="1.3636363636363635" as="sourcePoint" />
            <mxPoint x="39" y="1.3636363636363635" as="targetPoint" />
          </mxGeometry>
        </mxCell>
        <mxCell id="8uBbU_594jC50RYXib-e-12" value="" style="endArrow=none;html=1;rounded=0;strokeWidth=2;strokeColor=#E43737;" parent="8uBbU_594jC50RYXib-e-10" edge="1">
          <mxGeometry width="50" height="50" relative="1" as="geometry">
            <mxPoint y="20.454545454545453" as="sourcePoint" />
            <mxPoint x="39" y="20.454545454545453" as="targetPoint" />
          </mxGeometry>
        </mxCell>
        <mxCell id="8uBbU_594jC50RYXib-e-13" value="&lt;font&gt;Oxygen&lt;/font&gt;" style="text;html=1;strokeColor=none;fillColor=none;align=left;verticalAlign=middle;whiteSpace=wrap;rounded=0;fontColor=#E43737;" parent="8uBbU_594jC50RYXib-e-10" vertex="1">
          <mxGeometry x="44" width="60" height="40.90909090909091" as="geometry" />
        </mxCell>
        <mxCell id="8uBbU_594jC50RYXib-e-14" value="" style="endArrow=none;html=1;rounded=0;strokeWidth=2;strokeColor=#81E6D9;" parent="8uBbU_594jC50RYXib-e-10" edge="1">
          <mxGeometry width="50" height="50" relative="1" as="geometry">
            <mxPoint y="39.54545454545454" as="sourcePoint" />
            <mxPoint x="39" y="39.54545454545454" as="targetPoint" />
          </mxGeometry>
        </mxCell>
        <mxCell id="8uBbU_594jC50RYXib-e-15" value="&lt;font&gt;Hydrogen&lt;/font&gt;" style="text;html=1;strokeColor=none;fillColor=none;align=left;verticalAlign=middle;whiteSpace=wrap;rounded=0;fontColor=#81E6D9;" parent="8uBbU_594jC50RYXib-e-10" vertex="1">
          <mxGeometry x="44" y="19.09090909090909" width="60" height="40.90909090909091" as="geometry" />
        </mxCell>
        <mxCell id="8uBbU_594jC50RYXib-e-16" value="" style="endArrow=none;html=1;rounded=0;strokeWidth=2;strokeColor=#ED8936;" parent="8uBbU_594jC50RYXib-e-10" edge="1">
          <mxGeometry width="50" height="50" relative="1" as="geometry">
            <mxPoint y="58.63636363636363" as="sourcePoint" />
            <mxPoint x="39" y="58.63636363636363" as="targetPoint" />
          </mxGeometry>
        </mxCell>
        <mxCell id="8uBbU_594jC50RYXib-e-17" value="&lt;font&gt;Methane&lt;/font&gt;" style="text;html=1;strokeColor=none;fillColor=none;align=left;verticalAlign=middle;whiteSpace=wrap;rounded=0;fontColor=#ED8936;" parent="8uBbU_594jC50RYXib-e-10" vertex="1">
          <mxGeometry x="44" y="38.18181818181818" width="60" height="40.90909090909091" as="geometry" />
        </mxCell>
        <mxCell id="8uBbU_594jC50RYXib-e-18" value="" style="endArrow=none;html=1;rounded=0;strokeWidth=2;strokeColor=#3182CE;" parent="8uBbU_594jC50RYXib-e-10" edge="1">
          <mxGeometry width="50" height="50" relative="1" as="geometry">
            <mxPoint y="77.72727272727272" as="sourcePoint" />
            <mxPoint x="39" y="77.72727272727272" as="targetPoint" />
          </mxGeometry>
        </mxCell>
        <mxCell id="8uBbU_594jC50RYXib-e-19" value="&lt;font&gt;Water&lt;/font&gt;" style="text;html=1;strokeColor=none;fillColor=none;align=left;verticalAlign=middle;whiteSpace=wrap;rounded=0;fontColor=#3182CE;" parent="8uBbU_594jC50RYXib-e-10" vertex="1">
          <mxGeometry x="44" y="57.272727272727266" width="58" height="40.90909090909091" as="geometry" />
        </mxCell>
        <mxCell id="8uBbU_594jC50RYXib-e-20" value="" style="endArrow=none;html=1;rounded=0;strokeWidth=2;strokeColor=#F687B3;" parent="8uBbU_594jC50RYXib-e-10" edge="1">
          <mxGeometry width="50" height="50" relative="1" as="geometry">
            <mxPoint y="99.54545454545453" as="sourcePoint" />
            <mxPoint x="39" y="99.54545454545453" as="targetPoint" />
          </mxGeometry>
        </mxCell>
        <mxCell id="8uBbU_594jC50RYXib-e-21" value="&lt;font&gt;Carbon Dioxide&lt;/font&gt;" style="text;html=1;strokeColor=none;fillColor=none;align=left;verticalAlign=middle;whiteSpace=wrap;rounded=0;fontColor=#F687B3;" parent="8uBbU_594jC50RYXib-e-10" vertex="1">
          <mxGeometry x="44" y="79.09090909090908" width="89" height="40.90909090909091" as="geometry" />
        </mxCell>
        <mxCell id="8uBbU_594jC50RYXib-e-26" value="" style="ellipse;whiteSpace=wrap;html=1;aspect=fixed;fillColor=#ECC94B;strokeColor=#ECC94B;" parent="1" vertex="1">
          <mxGeometry x="786" y="107" width="7" height="7" as="geometry" />
        </mxCell>
        <mxCell id="8uBbU_594jC50RYXib-e-27" value="" style="ellipse;whiteSpace=wrap;html=1;aspect=fixed;fillColor=#F687B3;strokeColor=#F687B3;" parent="1" vertex="1">
          <mxGeometry x="785.5" y="157" width="8" height="8" as="geometry" />
        </mxCell>
        <mxCell id="8uBbU_594jC50RYXib-e-28" value="" style="ellipse;whiteSpace=wrap;html=1;aspect=fixed;fillColor=#3182CE;strokeColor=#3182CE;" parent="1" vertex="1">
          <mxGeometry x="786" y="122" width="7" height="7" as="geometry" />
        </mxCell>
        <mxCell id="8uBbU_594jC50RYXib-e-29" value="" style="ellipse;whiteSpace=wrap;html=1;aspect=fixed;fillColor=#ED8936;strokeColor=#ED8936;" parent="1" vertex="1">
          <mxGeometry x="785.5" y="139" width="8" height="8" as="geometry" />
        </mxCell>
        <mxCell id="8uBbU_594jC50RYXib-e-30" value="" style="group" parent="1" vertex="1" connectable="0">
          <mxGeometry x="78" y="470" width="126" height="52" as="geometry" />
        </mxCell>
        <mxCell id="8uBbU_594jC50RYXib-e-31" value="" style="group" parent="8uBbU_594jC50RYXib-e-30" vertex="1" connectable="0">
          <mxGeometry x="13" width="33.25" height="33.25" as="geometry" />
        </mxCell>
        <mxCell id="8uBbU_594jC50RYXib-e-32" value="" style="ellipse;whiteSpace=wrap;html=1;aspect=fixed;fillColor=#e0e0e0;strokeColor=none;shadow=0;gradientColor=#d6d6d6;opacity=20;" parent="8uBbU_594jC50RYXib-e-31" vertex="1">
          <mxGeometry width="33.25" height="33.25" as="geometry" />
        </mxCell>
        <mxCell id="8uBbU_594jC50RYXib-e-33" value="" style="ellipse;whiteSpace=wrap;html=1;aspect=fixed;fillColor=#F6F7FB;strokeColor=#FFFFFF;shadow=0;" parent="8uBbU_594jC50RYXib-e-31" vertex="1">
          <mxGeometry x="1.5" width="31" height="31" as="geometry" />
        </mxCell>
        <mxCell id="8uBbU_594jC50RYXib-e-34" value="" style="shape=image;verticalLabelPosition=bottom;labelBackgroundColor=default;verticalAlign=top;aspect=fixed;imageAspect=0;image=data:image/png,iVBORw0KGgoAAAANSUhEUgAAAgAAAAIACAYAAAD0eNT6AAAABHNCSVQICAgIfAhkiAAAAAlwSFlzAAApYgAAKWIBlSuw8AAAABl0RVh0U29mdHdhcmUAd3d3Lmlua3NjYXBlLm9yZ5vuPBoAACAASURBVHic7d13uK5HWe/x751OEkgCJKQTCElAeheQJgRURKRKUQTFiiCIIOJBPSCoB44oolg4FBEUQXpvCSAQgiGUSBfSGyQB0sve9/ljnu3eJLusNe9T5nnf7+e61kVI9jxz75XsNb93Zp6ZyEwkrZaI+Ajw4zv4ZT8AjszM745QkqSR7TR1AZLGFRE/xY4Hf4AbAH84cDmSJhLOAEirIyJ2Ar4A3GaNTa4GbpWZ/z1cVZKm4AyAtFp+kbUP/gC7Ai8eqBZJE3IGQFoREbEz8DXgyHU2TeDWmfmV/quSNBVnAKTV8XOsf/AHCOD3e65F0sScAZBWQEQE8EXWN/2/pWuAozLz1N6KkjQpZwCk1fAz1A/+ALsAv9dTLZIa4AyAtAIi4jPA3RZ8zJXAzTLznB5KkjQxZwCkJRcRD2TxwR9gd+BZPTxHUgOcAZCWXER8FLh/T4+7BDgiMy/o6XmSJuIMgLTEIuIe9Df4A+wNPL3H50maiDMA0hKLiHcDD+n5sRcBN83Mi3t+rqQROQMgLamIuD39D/4A+wG/McBzJY3IGQBpSUXEm4DHDPT48yh7Aa4Y6PmSBuYMgLSEIuJo4FEDdnET4JcHfL6kgRkApOX0XIb/8/2ciNh14D4kDcQAIC2ZiNgPePwIXR0OPHSEfiQNwAAgLZ/HUg7tGcOTRupHUs/cBCgtmYg4Abj7SN1dAxySmeeP1J+knjgDIC2RiLgl4w3+UC4JGmO5QVLPDADScvnFCfp80gR9SlqQAUBaEhGxE/DzCzziC5Xtbt8dOiRpRgwA0vJ4AHBoZduTgT9YoO8pZh4kLcAAIC2PRQbh1wLvB86pbP+EiNhlgf4ljcwAIC2BiLg+8PDK5lcBb8zMDcDrK59xAPCTlW0lTcAAIC2HRwN7VrZ9d2Z+t/vr1yxQg8sA0owYAKTlsOj0PwCZ+VXghMrnPDQibrhAHZJGZACQZi4ibg7cu7L5ecD7rvX3Xlv5rN2Ax1W2lTQyA4A0f08EorLtGzLzmmv9vX8FLq98nssA0kwYAKT5e+ICba+z5p+Z3wfeVvm8u0bErRaoR9JIDADSjHUH8NyssvlJmXnKNv7ZIpsBa99GkDQiA4A0b4u8evfa7fyzjwKnVz73JyrbSRqRAUCat9rBdgPwL9v6h5m5EfjnymffIyL2qWwraSQGAGmmIuIGwL0qm38qMy/Ywa95R+WzdwGOrWwraSQGAGm+HkAZbGu8Zw2/5rOU1wRruAwgNc4AIM3XIuv/797RL8jMZG1BYWs8FlhqnAFAmq/aT9mnZuZ/rfHX7jAobMPBEXG7yraSRmAAkGYoIm4NHFbZfD2f6j8EXFnZj7MAUsMMANI8DTr9v0lmXgIcX9mP+wCkhhkApHmqHVwvY/0Deu0ywL26a4olNcgAIM1MROxF/eU/H87MK9bZpjYA7Ao8sLKtpIEZAKT5eQDl5r0a6x7MM/NUYFtHBu+I+wCkRhkApPlZZG39vZXtamcB3AcgNcoAIM1P7afqkzPzrMq276psd1j3xoKkxhgApBmJiJsCR1Q2P26Brj8DXFLZ9r4L9CtpIAYAaV7uukDbT9Y2zMwNwAmVze9W26+k4RgApHlZJAB8asG+a9sbAKQGGQCkeakdTL+dmecu2HftDMIx3c2FkhpiAJBmIiJ2Au5c2bx6+n8LJwAbK9otUrekgRgApPk4Bqg9WW/R6X8y8wfUnwfgMoDUGAOANB+LDKJ9zACA+wCkpWEAkOajdgPgIp/cr602SBgApMYYAKT5qA0An8nMmrX7rakNAIdGxIE91SCpBwYAaQYiYjfg9pXN+5r+JzO/DdS+TeAsgNQQA4A0D7cDdq9su/AGwGtxGUBaAgYAaR5qp/83Un+C37a4EVBaAgYAaR5qB89TM/PiXiuBkyvb3SUiotdKJFUzAEjzUDsD8F+9VrHYM/cDbtFnIZLqGQCkxkXEnsCtKpv3HgAy83zgO5XNPRFQaoQBQGrfLaj/szrEDADUnytwTK9VSKpmAJDad9QCbVsLAEf3WoWkagYAqX21AWAj8JU+C9mCAUCaOQOA1L7aAPCtzLyi10o2q51ZWGQ2Q1KPDABS+2p3zg81/Q/1MwD7RMQBvVYiqYoBQGpf7afmwQJAZn4fOLOyubMAUgMMAFLDImJv4KDK5kPOAID7AKRZMwBIbVvk4JyhA0Dt8w0AUgMMAFLbFnkD4Kt9FrIVtTMALgFIDTAASG2rHSzPycwre63kur5d2c4ZAKkBBgCpbbUB4LReq9i60yvb3cJLgaTpGQCktrUcAM6kLDWs1/WAQ3uuRdI6GQCktjUbADLzauCcyuYuA0gTMwBIjYqIGwC1h+aMMQMA9csAbgSUJmYAkNp1+AJtWw8Ah/VahaR1MwBI7brJAm1rB+ax+lnk9yapBwYAqV0HLtB2rBmA2n4MANLEDABSu2oHyQsz85JeK9k2ZwCkmTIASO2qnQEY69M/1AcAbwSUJmYAkNpV+yl5DgHAGQBpYgYAqV21g+QZvVaxHZl5EVCz3LBH95qjpIkYAKR21S4BfLfXKnbsO5XtnAWQJmQAkNpVvQmw1yp27ILKdgYAaUIGAKlBEbETsH9l89oBuVZtf24ElCZkAJDadGNg58q2zgBI2iEDgNSmRQ4BMgBI2iEDgNSmRQbHsQNAbX8GAGlCBgCpTYsMjnPZA2AAkCZkAJDaVLsBcCPw/T4LWYPaAHCjXquQtC4GAKlNe1W2uygzs9dKdqw2AOzdaxWS1sUAILWpNgCMvf4P9QFgz16rkLQuBgCpTbUBYOz1/0X6rP09SuqBAUBqU+3gOPb6P8BFle0MANKEDABSm2qnx6/qtYq1ubqynQFAmpABQGpT7eB4Ta9VDNvn7hFRe9qhpAUZAKQ21QaA2k/ji1gkdLgRUJqIAUBq02xmADJzA1D76qHLANJEDABSm+Y0AwD1wcMAIE3EACC1qXZqfIo9AIv0awCQJmIAkNq0KjMA7gGQJmIAkNo0mz0AC/brDIA0EQOA1KbaT8ZTzQB4FoA0MwYAqTERsTv1fzbnNgNwvV6rkLRmBgCpPbFA27ntAVjk9yppAQYAabnMbQZA0kQMANJymdsMgKSJGACk5eIMgKQ1MQBIy2VubwFImogBQFouLgFIWhMDgLRcXAKQtCYGAGm5OAMgaU0MANJycQZA0poYAKTl4gyApDUxAEjLZaqB2LcApJkxAEjLxRkASWtiAJCWS65Yv5IqGQCk9izyKX6q63Vr+72q1yokrZkBQGpMZm4ALq1svneftazD9Svb/aDXKiStmQFAatPFle2mCgC1/RoApIkYAKQ21Q6McwsAtUFH0oIMAFKb5jYD4BKANDMGAKlNzgBIGpQBQGrTbGYAImJ3YJeKpglc0nM5ktbIACC1aU4zALXT/5dm5sZeK5G0ZgYAqU2zmQFYoE/X/6UJGQCkNq3CDIDr/9KEDABSm5wBkDQoA4DUpjnNAPgGgDRDBgCpTXOaAfAMAGmGDABSm5wBkDQoA4DUptoAsFtE7NprJTvmHgBphgwAUpsW+XQ89iyASwDSDBkApDYtMjiOHQBcApBmyAAgtWlOMwAuAUgzZACQ2jSnGQAPApJmyAAgtekSymU5NZwBkLRDBgCpQd0lOZdWNncGQNIOGQCkdtUOkAf0WsVw/TkDIE3IACC1q3aAPKjXKnbs4Mp2zgBIEzIASO2qHSBHCwARsTNwk8rmzgBIEzIASO2qHSBrP5HXuAmwc2VbZwCkCRkApHZ9v7LdmEsAtWHjGsqbDpImYgCQ2nVmZbs5BIBzMrP2NUdJPTAASO06o7LdgRERvVaybbUBoPb3JqknBgCpXbWD5G7AjfosZDsMANJMGQCkdi0ySI61DHBIZTsDgDQxA4DUrkUGybHeBHAGQJopA4DUrrOBjZVtx5oBMABIM2UAkBqVmdcA51Q2bz0AnN5rFZLWzQAgta32k/LgSwARsRtw48rmzgBIEzMASG2rHSjHmAGoDRlXAt/psxBJ62cAkNq2jAHgTA8BkqZnAJDa1uwSwAJ9OP0vNcAAILVtGWcADABSAwwAUttqB8vdI2K/Xiu5LgOANGMGAKltLR8G5CmA0owZAKS2nQdcXdn25n0WshVHVrYzAEgNMABIDcvMjcBZlc1rB+i1OqqynQFAaoABQGpf7YB5i16r2EJE7IuHAEmzZgCQ2tdcAACOrmx3aWZe1GslkqoYAKT2tRgAnP6XZs4AILWvdtC8aUTs0mslmxkApJkzAEjtqx00dwFu2mchW6hdAjAASI0wAEjtO3WBtkMtA9TOAJzaZxGS6hkApPZ9HdhY2ba1APDlXquQVM0AIDUuM68Avl3ZvPezACLiAGCfyuZf6bMWSfUMANI81A6cQ8wA1H76vxr4Rp+FSKpnAJDmoXbqvKUA8M3MrD3WWFLPDADSPNTOANw8Ivr+c+76v7QEDADSPNQGgN2BQ/sshPpXAF3/lxpiAJDmYZHBs++NgM4ASEvAACDNQGb+ADi7snntJ/br6JYTDADSEjAASPNRO4DetscajgT2rGi3Efhaj3VIWpABQJqP2mWAPgPA7Svbfbs7z0BSIwwA0ny0EABuV9nO6X+pMQYAaT5qA8B+EXFITzXUzgAYAKTGGACk+VhkEO1rFqB2BsBXAKXGGACkmcjM84ELK5svHAAiYh/giMrmzgBIjTEASPMy5T6ARZ7hDIDUGAOANC9TBoDa9f8zMvOSHvqX1CMDgDQvX6psd6uI2GXBvmvX/7+4YL+SBrDoDwRJ4/rPyna7U07w+58ZhC4Q3LD7uhGwG2WPwYXABZl52bWeUTsDUFuzpAEZAKR5+TywAdi5ou1PRcTdgHsC9wBuzXZmASPiPOBT3dengdtU9AlwUmU7SQOKzJy6BknrEBFfpN/DfYZ2cGaeM3URkn6YewCk+ZnTlPo5Dv5SmwwA0vzMaUp9TmFFWikGAGl+5jSozqlWaaUYAKT5+QJwzdRFrNGcZiuklWIAkGamu1b3lKnrWCNnAKRGGQCkeZrDwHpmZp43dRGSts4AIM3TF6YuYA3mUKO0sgwA0sxExK7Ak6auYw0eEBF3nLoISVtnAJDm5/nAnacuYg32AP49IvabuhBJ1+VJgNKMRMTdgU9SdxTwVN4DPDT9YSM1xRkAaSYiYk/gn5jX4A/wEOBXpy5C0g9zBkCaiYj4G+A3e37secC3gbOAi4H9gQOBWwF79tzPLTLzkh6fKWkBBgCpcRGxF/Aw4A09PfJc4B+Bd2TmVg/qiYjrAccCjwEeSz+zDi/MzD/s4TmSemAAkBoREbsAR1Nu+rst5frd2wI3A6KHLi4H/gL4s/V8Eo+IWwF/BvzMgv1fBtwxM7++4HMk9cAAIE0gIm4I3A24A5sH+lsCuw3U5anAz2Zm9bv5EfHrwMuBXRes5XTghO7r08DJmXnlgs+UtE4GAGlgEbE7ZaC/e/d1N+AWI5ZwIvCQzPzuog+KiPsC76Xf/QFXASdTwsAJwAmZeVqPz5e0FQYAqUcREZRp/LuxebC/PcN9st+Rs4C7ZOa5fT0wIh4NvIl+liW25Rzg48BxwEcz8xsD9iWtJAOAtICIOIDNg/3dgbsC+05a1GYbgHtk5mf7fnBE/Bnwe30/dzvOBD7afR2XmaeP2Le0lAwA0jpExCHAA4AHAvcGjpi0oO37f5n5lCEe3L2Z8E3KK4NT+G9+OBB46ZC0TgYAaTsiYl/gfpQB/wGUjXpzcAVwVGaeOVQH3abAVw71/HX6L7rlAuD4zLxo4nqk5hkApC1ExB7APdk84N+Z+Z28B/C2zHzEkB1ExPWB7zLd/oZt2Qh8Hvgw8E7g05m5cdqSpPYYALTSImIn4E5sHvB/jHKJzdw9KTNfN3QnEfF+4MFD97Og84F3Ae8APpSZV0xcj9QEA4BWTkQczeYB//7AMt5Wd3BmnjN0JxHxbOD/DN1Pjy4FPgi8HXhPZl4wcT3SZAwAWnoRsT/lU+qmzXuHTlvR4K4C9hjj9r2IeCzwL0P3M5ANwCcoMwPvyMxvT1yPNCoDgJZSRBwIPAJ4FHAf5rmOX+u0zDxijI4i4j7Ax8boawRfpMwMvCMzPzd1MdLQDABaGhFxMGXQfzRlLX9Vr7v+RmYePUZHEXFP4JNj9DWyMygzA28HPp6ZV09cj9Q7A4BmLSIOBR5J+aR/L4Y9nW4uLs3MvcfoqDsV8N/G6GtC36Mcf/x24H1eaaxlYQDQ7ETE4ZQB/1HAj7Jcg35SDrk5Cfgc8DvATSqes29mfr/PwrYmIp4BvGzofhpyGfBW4LWUI4r9AarZMgBoFiLiCMqA/2jK0bvLIIFvsHmwPwn43JYDd0R8iLJxcb1+JjPf1UuV2xERbwUeXtH0fcD1KAFurq9dng68DnhdZv731MVI62UAULMi4kg2f9K/y8Tl9OF0ynr5ZykD/smZ+YPtNYiIVwBPrejrdZn5pIp2a9YdmvRdYK+K5nfPzBMjYjfK/Qn36b7uCdygvypH8wngNcCbXSLQXBgA1JSIOIrNn/TvOHE5i9gIfAn4j+7rk5l5xnofEhFPA15e0f/3gJvuKGAsIiIeB7yxoukGYO+tHcgTETtTrk6+D+WuhXsDN16kzpFdCvw7ZYngeJcI1DIDgCbXDfo/Rxn0bzdxObUuA05k84D/6T4G34i4V/e8Gn+Smc9ftIatiYhdga8AR1Y0PyUzb7vGfgK4FWUZ5MGUexn2rOhzCqeyeYnAMwbUHAOAJhER16N80n8K5dPe3JxP98m++9+Th3hVrDuq+Fxg/4rmlwHHDHEhUEQ8C3hpZfN/yMxfq+x3d8rbHg/uvm5H+5tAk3JWwmuBt2TmpdOWIxUGAI0qIu5EGfQfD+wzcTnrcTHlprkPAB/OzG+M1XFEvBp4cmXzk4D7ZOZlPdbzY8BHqL8E6AGZ+dGeajkQeBAlDBxLXVAa0yXAmylh4BMuEWhKBgANrrtS9/GUgX8u6/pJuVHuA8D7gU9NdRhMRDyM8g56rbcBP9dH/RFxC8qMR82riQBnA4cNcTtft1xwRzbPDtwT2LXvfnr0LTYvEZw2dTFaPQYADSYi7ksZ9B9JeeWrdd8BPkQZ8D+YmedNXA8A3U75bwGHLPCYjwGPyszvLlDH/YG3ADdcoI6/yMxnLdB+zSJib8plTw8FfpZ2ZwcSOI4yK/Dvfc7WSNtjAFCvIuIA4Je6r6MmLmdHrgFOoAz4HwBOanVKNiJ+B/i/Cz7mVOAZmfmOdfZ9A+A5wO8BuyzQ/zXAj4y5fLJJ93bBfShh9BHAQWPXsEYXAv8AvCIzz5q6GC03A4B6ERG3BZ4BPAHYfeJytud0Nk/rf2SM0/L6EBF7UWpf5NP3Jp8A/oIyy7HNT5vddP+jgGfRz6t4r8rMX+nhOQvplgruSfm9PQI4fNqKtuoayl6Bl2XmZ6cuRsvJAKBq3Q/SnwKeSblqt1X/STmv/t2Z+ZWpi6kVEc8DXtTjI68Ajge+SXnT4GLgQMpSw12AH+mxryuBo2rOQhhaRNyNEgYeCdx84nK25lOU45bflpkbpi5Gy8MAoHWLiD2BXwR+Gzhm4nK25STKJ6h/W5Z3sLu9AJ9lnmclvDQznz11ETsSEXdk8+VSrf23fRrw15SZlFnMXKltBgCtWXfz3m8BvwrsN3E5W3My5ZP+m5f1bPbuNcrPsNha/Ni+SDn69zon/7UsIm7N5pmBNR1cNJJLgFcDL1/W/841DgOAdigi7kqZ5n807Q08X6AM+v+Wmd+cupgxRMSfUzblzcHlwF0y88tTF7KIiDgaeCzlPIYjpq3mf2wE3gW8ODNPnLoYzY8BQNsUET8NPJdy8lpLvsjmT/pfn7qYsXSnAv4a8GJg34nLWavfz8w/m7qIvnT7Xu5PecvlEbTzeuv7gRdm5qemLkTzYQDQdXQHz/whcKepa9nCKWz+pP+1qYsZW0TcGXgl5ea8OfkB8MzMfPXUhfQtIvYBHkcJA638e/kI8ILM/PjUhah9BgAB//PJ5mcpA/8dJi5nk/9i8yf92e7eX0Q3yLwI+A1gp4nLWcR7gV/JzLOnLmQIEXEbShD4edo4cOhjlBmBj0xdiNplAFhx3cD/SOD5tLG7/PvA6ykXxnxp6mKmFBFPoBz+U3vsbmsuAp6WmW+YupChdLckPpQSBn4C2HnaivgUZUbgAxPXoQYZAFZUt578KMrAf5uJy4Hy2t7fAf+y6relRcQtgb+lrDUvo7cBv56Z509dyJAi4mDgiZSNg0dPXM6JlCDwnonrUEMMACumG/h/Dvhf9HvQS43LgH8F/s7Tzv7nfIX/RTl5r/amvbn4LvCbmfnmqQsZQ3eD4i8BjwH2mrCUzwF/nJnvmrAGNcIAsCK6gf9xlAHmlhOX82Xg74F/yszvTVzL5LplmF+g7O5f5MKfOXoT8NTMvGDqQsbQXVD0GEoYmPLtmo8Dz/b1wdVmAFgBEXE/ylGiU27uuwp4K/BKdyhv1n0yfBnl6N1VdR7w9Mz8t6kLGVN3f8azKecLTHVt8b8Bz/NAodVkAFhi3WUuL6Hs7p/Ktymf9l+dmd+ZsI6mRMTNgP9D2Yeh4v2U2YBvTV3ImLoTNp8J/Apw/QlKuJqy5+SFqzITo8IAsIS6V8eeDzyNadaSNwDvpmzq+0CrV+xOobta93mUmxNbvjVxKpcDL6TcHXD11MWMKSL2BX4deDrTXFf8feDPgL+c27HNqmMAWCLdnee/CryAfq5vXa+zgVcB/5iZZ07Qf7O6fze/TBncDpi4nE2uAp4CHEzZe7APcAFwPnAY8JvTlcaXKW8KfGLCGibRXfr0C5TNoLeaoIQzKB8gXp+ZGyfoXyMxACyJiHgw5Z3xW0/Q/Ycpp9S9MzOvmaD/pkXEA4G/oK0LZQC+lZlHbu0fRMTdgRNGrufaknLpzXMy88KJaxldtzn0oZR9Aj82QQlfoHzvPzhB3xrBnE8WExARt4qI91LWT8cc/DdSrtu9Y2Yem5lvdfD/YRFxTES8C/gQ7Q3+UD7p1fyzsQRl1uRrEfHEqYsZWxbvzMx7A/egnJ8w5ify2wMfiIgPRsTUrwxrAAaAmYqIG0XEX1MuxvnJEbu+Gngt8COZ+ZjM/PyIfc9CRBwUEa8AvgT89NT1bMf2BvlzKf+uW3Bj4HURcVxEHDN1MVPIzBMy8xGUJYF/AMZcoz8W+HxEvCgi9hixXw3MADBD3aehrwO/xXjX814BvAK4RWY+eRUv5NmRiLhxRLwU+G/gqYzzatdbKEs/NbYZALq137MqnzuU+wFfjIgXrOpAlJlfz8xfo1xJ/CLK8cpj2JWyefWUiDh2pD41MAPAjETE4RHxPuB1wA1H6vZi4M+BIzLzaZl5+kj9zkZE7BcRf0J55fFZjHNF7FeBYzPz0ZS18ho7muavXQYYcvlgN8oGtS91+15WUmael5n/i7JZ8xnAaSN1fSTwwYh4Q0S0splVlQwAMxDFb1KuxP2Jkbq9gHIz4OGZ+dzMPG+kfmcjIq4fEc+nDPx/AOw9QreXAM8BbpeZH+7+3mGVz9pRmKsdyH+H8irbkHc63AJ4f0S8JyKm2CnfhMy8NDP/ivL9eALlBs0xPB74akT8SrdZUTNkAGhcRBxNudrzbxjnkJCLgT8GbpaZL/So3uuKiD0j4jmUgf8FlNfnxvAvwDGZ+ZJrvSNfGwCGmgE4JDP/mnLJ1Id39IsX9FOUZYG/iYgpXn1tQmZek5lvpNzo+UTKf5tD24+yH+ETETHF20dakAGgURGxczfIfAG49whdXgn8JXBkZv7vzLx4hD5nJSJ2j4inA9+iLIvcaKSuTwHul5mPz8yzt/LPWwsAhwFk5qmZeSxlJ/+QQXIXypkF34yIZ0fEyh6wlJkbM/P1wDGUPULnjtDtvYCTu02CYyx/qScGgAZFxO2Az1AGmaE3O22k7Oo/OjOf6XG91xURu0bErwHfBP4KuMlIXf+AckTsHTPzY9uobWfKQT7rdWlm7mgD2UIBYJPMfDXlFdV3VD5vrfahHK/8lYhY6SOWM/PqzPwbypr98xg2gMHmTYJfiogHDdyXemIAaEhE7BYRLwT+E7jzCF2+Hbhtt6vfzX3X0s3CPAn4GuVY40NH6nrLUPaXOzhf4WBg54o+1jK49xIAADLz7Mz8WcrFN0OHzJsBb46I/4iIuw7cV9My87LM/FPK9+RPKVdwD+lIytkB/9Qde62GGQAaERE/CpxMua536NfHjgfukZkPz8wvD9zX7HQD/+Mox9G+hvLDcywfAu7UhbK1bLwcavp/rb9ma7ZZU2a+CfgR4I2Vz16PewGfiYh/joja79NSyMzvZebzKAP03zD8GQ+/QDk74J4D96MFGAAmFhE7RcQfA5+k/GAc0peAn8jM+2fm1Me8Nici9oqIpwHfoAxQR4/Y/Rcp/24elJlfWEe7wQJAZn6XcjnPeh3ULU1s87mZ+QTKMbdDnzUQlN3xX4uIP4mIMd7UaFZmnpuZvwXckuGXZG4GfDwi/mh7/z1oOgaACXXv0X4Q+COG/XexaS35Tpn5gQH7maWIODAiXkQZFF/OuJ/4zwJ+ibLOX/PvZsgZgPX8ui2taV9CZr6bEnr/Ehj6GOnrUV7V/EZE/HJErPTPvsz8Vrck8xOUJa6h7Ex5q+hjEXHEgP2owkr/IZhSRNyHMuX/gIG7egPl1bEdrSWvnIi4dUS8mnKIyvMorzWN5WLKcs9RmfmaBW5dazEAwBrryswfZOYzgTsCH6/saz0OpNxYeXJEDP1nr3ld6Lwt5WyJId/8uRdlSeBxA/ahdTIAjKw71Of3gI9St3t7rU4B7puZP5+ZY7wKNBsR8YDuAqVTgCdTTpcbyzXA31Jet3xRZtZMsW9p1gFgk8w8JTPvS5muP6eyz/W4HfDhiPhwRIzxmm2zujcGXkJ5dfD11J8suSP7AG/sNgiOcaaJdsAAMKKIuCHwLuDPt/l94wAAHtJJREFUqNu5vRYXU05iu2NmjvGJahYiYpeIeEJEnEw5nGbMC5Q2eRtw68x8ao+vWw51CuAmowSATbrDbI6h3G8wxozVAyjr1B/tZuVWVmaek5lPpFw9/LkBu9q0QfBHB+xDa2AAGEl3v/rJwEMG7OaNlOn+lzndX0TEDSLidykno/0zcIcJyjgBuHdmPiIzv97zs5diBmBLmXlxZv4u5Tra42qfs073p6xTHxcR9xupzyZl5qeAuwK/TjkSfAg3p5wg+Hw3CE7HADCCiPht4BPA4QN18WXg/pn5hMwcY/q0eRFxWHcz3xnASxjvHf4tfRl4dGbeIzP/o++Hdyfe1VzIclFmrvWc/tEDwCaZ+eXM/HHgcYx3M+H9gOMi4mMR8eMj9dmc7kTBvweOorwKO4RdKEdpHxcRQ/1s1HYYAAbUffp8C2WX8xDv9m+gnBZ4p8w8foDnz05E3DEi3kA5rvdZwBSHkZwCPAa4TWa+ZcB+DqG85rZe6xnUJwsAm2Tmv1JeW3sJw7+/vsl9gI9ExCdWebNgZl6Umb9EeVtgqMPC7g2ctOpLMFMwAAwkIu4AnAQ8cqAuvk6ZVn5uZl45UB+zEBF7RMTjIuKjlLXLx1M+XYzti8CjKDf1vTkzh9pMtcnQ0//r/bVb6vXgncy8JDOfQ7d5r89n78CPUTYL/kdEHDtiv03p3ha4DfBKhtkkeGPK9/lXB3i2tsEAMICIeBjwKcoVnX1Lyrvqd8jMTw/w/NmIiLtGxN9Sdo2/kbKOO4XPA4+g/Dv59xEG/k1qp03XPKhn5g8o50is1wER0fvbFZn51e6CocdQH05q3Av4YER8KiIePGK/zej2Zvwm5c/Zfw/Qxa7A30fEyyNiigC/cgwAPYuIXwf+nXLwSN9OBX48M3+7h9fHZikiDoiIZ0XEKcCJwG8A+05UzknAwzLzjpn5thEH/k3GmAGo+fVQliYG23eRmW+mvC3wXIa/6GZL9wDeHxGfjoifGLHfZnQXU90OeBnl3oq+PQ14X0SMeS7HSjIA9Cgi/oQyRTbErtZ/pEwtHz/As5vWvcL3sIh4O2Uz2Espt8tN5bPAQzPzLpn5zgnrGCsA1K79Dnr+fmZenpl/TtlR/lLgiiH7u5YfpQxSn4mInxqx3yZ0lwz9DmWJ5KsDdPFA4MSIuOUAz1bHANCDboB6NeWo0b6dBfxkZv5qZg55UldzupP6/i/le/B24GFMs7a/yWeAh2Tm3bpjbKfW8gwADBwANuk2qj2bcnfDaxnmU+m23A14T0ScGBGPXLVX2rplyDtQbhrc0PPjbwGcEBFTnNmxEgwAC4qIvYB3Uk6U69u/UHaSv3+AZzcpIvaNiN+IiBMpu+l/h7pX3fr0acpFPT+ame+duJYtGQC2kJlnZOaTKecHjB3Q7gq8BTg1Iv6gu+djJWTmld1Ng/cDzuz58fsA746IZ/X8XGEAWEj3h/x4+j9V7mrgaZn5+Mwcc31zEt2NiMdGxL9QNvT9LeUH6tT+A3hQZt6z0UuUagbYZP0/pGcRADbpjhV+KHBfyiFMYzoU+BPgjO4a4pU57a476+IOwHt6fvROwEsj4jXd2RfqiQGgUkTcgrLT/y49P/osyhn+r+j5uc2JiCMj4oWUzY0fBB4L7DFpUSV8vRG4W2beOzM/NHE9W9XNPNVskjq/4rXRWQWATTLz45l5D8qruEPeeLc1u1HuNfh0RJwUEU+OiKn/2x5cZl5Aueb5d+n/zIYnUQ4NuknPz11ZMf7G5fmLiLtSUu7+PT/6eODnMvP8np/bjIg4DHg45X35H6PuIJshfBf4e+BvM/PsqYvZkW5z1Fcqmv5nZq5rdiUijqKcO7FeX8jMKY5evo7utbJfolxNe9BEZVwI/D/glZn57YlqGE13/Pm/Akf0/OjTgWMHOFZ75RgA1qnbkPJmYK+eH/0S4Pczs++NNJPrBquHU96V73vGZFFfBP4KeGNmjrmLfCHdoTQfrGj6tsx8xDr72gOoee30wsy8UUW7wUTEnsAzgN9jmlMioWxSfC/wCuCDE7w+OpqI2JcSetb139wanAs8IDO/3PNzV4pLAOsQEU+mbPjrc/C/GHhkZj5nmQb/iLhLRLwoIr5M+aT6YtoZ/DcC76CcqXD7zHz1nAb/zlgbAOm+N9+t6OuG3YDbjO71tRdTXh38S+CqCcrYCfhp4P3A1yLiGRGxzwR1DC4zv5eZj6S829/niaUHAsdHxO16fObKMQCsUUQ8kZJk+3wN7cvAXTPzrT0+cxIRsWtE3C8i/ioiTqO8K/884FYTl7alH1B+6B+VmT+bmWPdNDeE0QLAgu0m3QewLZl5QWY+k/Lq4CsZ9wyBLR1FOVDnrIj4+4i47UR1DKrb03QP4Js9PnZ/yp6AO/f4zJViAFiDiPhZ4NX0u179JspGs7E3J/UmIm4VEU+PiHdR1jePA57OcLce1vom8NvAoZn5zMz81tQF9WDwY4CvpcnDgBaVmad1x9seQblYq+bY4z7sBfwq8MWI+HhEPGbZjsPNzJOBO1NmPvpyQ8qlTSvztkWfDAA70N0E9q/0e7rfCzLzseu4krUJEbF/d+nOqyPiDMoMxl9RpjP3nra6rfoI8DPAMZn58iU7SMkZgB5l5nmZ+VxKsHoeMOVG3HtTPiCcFhEviIhjJqylV93dEj9N2f/Ql30o9zTcu8dnrgQDwHZ0qfIdQF/vnm4Afj0z/6in5w0qIvaMiAdGxJ9HxOeA8yivyD2ZAc95X9DlwKuA22bmAzPzXZk55slwYzEADCAzv5+ZfwrcFHgq5RXVqRwMPB/4akT8Z0Q8MyKmeoOhN5m5ITOfRtkX0Ne+p+tT7mhY2auba/gWwDZ0a3Efo+5d6625AnhcZr69p+f1LiJuTlmn2/R1O6Y9enc9/hP4Z+Cfu3eRl1pEXML6N6NuAHav2WwaEY+jhL/1elVm/kpFuyZ00/CPpbw1cJuJy4GygfWjwBuAt3afqGeru1DpTfT3RsYVwMNX6fTURRgAtqI75OcTlJ2mfbgI+JnupKwmdLuz70q51GTTgD+340tPo/wgfH1mDnEhSZO6W9IurGh6RmZW7R2IiB+j/JlYrw9k5uxvzYuIoExdPxe458TlbHIF5cjjNwDvzcwp3mhYWETchvL7uGlPj7wKePTEF3XNggHgWiLiEMoRsEf09MgzKOfIT/a+akTsT7k970con2Luzrw+3W/pe5Qz118PfGKZ36Helu7Vpy9UNP1UZt6rss+bUjcd/uXMnPLmxt5FxH2A3wdaCjYXAW+lXJr1kbldF94dq/4OygeSPlwNPD4z39LT85aSAWALEXFj4OP09+raf1EG/74vyNiq7g/Rj1AG+1tv8dc3HqP/AV0NvI8y6L+r4ijbpRIRD6Husps3ZeZjK/vchfIe93r3DV2cmVMduDOoiLgDZUbgUQxzBXity4APUc4sefdcThbtDpx6DWXJpQ8bgCdk5pt6et7SmeMnwEFExA0or6f0Nfh/gjLt39tlPl1AOaT7OnSLvz6KMtjPfaC/thMog/6bVmFdfx3G3gBIZl4TEedSNqatx/UjYp/M/H5t363KzM8Dj+2WDJ8N/CL9bRhexJ6Uq7MfBmyMiM8A7wLemZn/NWll29EdOPW4iPg68Ic9PHJn4HURcVZLy68tcQYAiIjrUQb/+/T0yLdRpp+u6J4flEturtd9bfnX1/7ag/Jay7UH+UNo44fL0P6bzZv5+jw0ZGlExIsor6qt129n5ssX6PcEyvLRet02M0+p7Xcuuh36T6e8JdPqhTXfoswMvBP4j8zs+8KeXkTE04Dq/1av5QLgR/15cl0rHwAiYmfK2tNDpq5lhV1I2Qn8+sz89NTFtC4i/gn4hYqmj8jMty3Q778Bj65o+lOZ+b7afucmInal3Ij3K8CDaPd160uBT1IuITuOclHUNZNWtIWI+A3gb+jnALZvUEJAzebZpeUSQDnIxsF/fJdTLkR5PfC+ue5gnsjoSwALtp/VWQCL6j5VvxV4a0QcTrmF8Jdo7/uwFyWgPKj7/5dExCcpYeB44KQpA0FmvjIirqHc0rloCDgKeFtEHOvPms1WegYgIp5KvydSafvOo2xeeyfw4cy8bOJ6ZikivgkcWdH0wMw8b4F+n0E5t369/iQzn1/b7zKIiJ2ABwNPocwO7DptRWtyMeWNqOO7r89PMXh2l7C9in5mUv45M2tmz5bSygaA7r3m42lr9+4y+hLdBiTgxFV8ba9P3X6Sy1n/fpArgest8v2PiEdSXsFcr9dl5pNq+102EXETyobBp1A+mc7F1ZTjv0/uvj4HfGGMI7Yj4hcobwj08fP6jzPzf/fwnNlb5QBwe+DzU9exhK6mnKC4adfxqdOWs1y6wePciqbfysyaWYMt+74b8JmKph/NTI9o3YqIuC9lr8AjKRuA5yYpl21tGQpOzszv9N1Rdxrl6+knBPx8Zr6hh+fM2soGAICIOAm409R1LIFTKOuGH6X8sJ/18aQti4i7UK5aXq+PZeb9Fuz7IODsiqbfyMyjF+l72XWnO/48ZVZgGe64P4cSDE7dytfptXsLIuLRlCOpF92/dhXwwMysOd1yaax6APgt4K+nrmOGvkEZ7I8DjpvLQSPLICIeTtlgtl6vz8wnLtj3TpTjZ9e7fn15Zu65SN+rpJtpeQrwONq8ZXNRG4Cz+OFQcBrllM8fXPsrMy/ZsnH3Z+BNLL6P4gLgHpn5jQWfM1urHgBuSPlEswrv1y/iNDZ/wj9urJMNdV0R8XTKmyvr9eLM/IMe+v82dcdk39jDnNYnIvamnIr3FOrOX1gWGykbErcMBjenn7MWvkEJASv53+ZKvwaYmRdGxDuAx0xdS0MuAU4CTqRMNZ+YmadNW5K2MNUrgFs+54iKdodRPnFpjbpPvq8CXtXd1PlIyrHDd5u0sPHtRDkcbZ8Bnr3p9cAHruLrgSsdADqvYXUDwFWUS2U+y+YB/6uZuXHSqrQ9LQSAGofhpttqmfkt4CXAS7qzBTaFgXvQz0E5q+zelNdbnzp1IWMzAMAHKetRh0xdyMDOAb4GfJXyat5nKa/wrFzqnbmpA8Dple1aOwRntjLzdMqA9bKIOJgSBh5JGchaPXWwdb8ZESdk5uunLmRMKx8AMnNjRLyOurPVW3MlZeftV9k82H8V+Jo785fG1AHA0wAbkplnUzYy/3X3iujDgZ8B7ku5FEhr9/cR8cXMrLlqe5ZWPgB0Xkq5ee7QLb4OoWwyuQlwI6ZP1ldT3v8+ZytfZ1EG/FMzc8NkFWpQ3b0V672ND+DSzLyopzIMAI3qTnn8O+DvImJ3yozAg7uv205Z20xcj3J9+soEgJV+C2Ctuh+8B7A5EGz6OhC4AeUAj9238r+b/no3ygB+OeU1qsu3+Nra/7+UcmzuloP8BZ6it9oi4lDqBuCvZmYv11xHxB0oB76s18cz87591KD1685weBAlDBzL8l0d3oezgJu1ekPiEJwBWIPuU/WmgViayuGV7fqa/l/kWc4ATCgzzwFeB7yuO076TpQw8CDKWwXXm7C8VrxilQZ/MABIczL1+j+ZeUFEXMb615cPjYhwFmt63b+Dk7qvF3fXF98RuOcWX8u+KfraLgP+YeoixmYAkOajNgDU7tzfljOB9R7tuytl2azmHgMNqPvUe2L39ZcA3auGWwaC27Pc48XrMvPCqYsY2zL/C5WWzeQzAFs8r+Zs/8MwAMxC96rh6cC/AkTEXsBdKScS3oayWe6WLMfSQVJ3uubsGQCk+WgpANQ4jLqLjDSxzLyUcn368Zv+Xnc3xM0pYWDLr2OY182G783Mr01dxBQMANJ8tBIAPAxIdCeGfrP7esemv9+9NXUkJQwcTdlPcPAW/3sQi1/k06eXTV3AVAwA0ny0EgB8E0Db1L019fXu6zq6txAO4IdDwSHd1/6UDabX2+J/r/3XO2+n+02vVV/WfW3try8EvtN9nZuZH6n+zc6cAUCage5glwMqml7UTd/2yQCgat1bCOd1X+s+U6J7a2FTINiVzQP75b5lsj4GAGkeDqHu0pe+P/0v8kwDgBbWvbXw/e5LC5j6eFtJa9PK9P8izzQASA0xAEjz0EwAyMyLqfv0dVBEOOsoNcIAIM1DC8cAL/rcnSk7wCU1wAAgzUMrpwBu4jKANHMGAGkemlkCWPC5BgCpEQYAaR4MAJJ6ZQCQ5qFm4EzKxT1D8DRAaeYMAFLjuotY9qtoen5mXtV3PR1nAKSZMwBI7Wtt+n+RZxsApEYYAKT2tRgAapcWDABSIwwAUvuaCwCZeQXlMpX1OqC710DSxAwAUvuaCwALPD8o9xpImpgBQGrfMgUAcBlAaoIBQGpfa6cAbmIAkGbMACC1r7V7ABZ9vgFAaoABQGpfzYC5ATin70KuxcOApBkzAEgNi4j9gL0qmp6dmRv6rudanAGQZswAILWt1Q2Ai/RhAJAaYACQ2tZyADgb2FjRzgAgNcAAILWt2QCQmddQt8/ght39BpImZACQ2tZsAFiwn0N7rULSuhkApLYtawBwGUCamAFAapsBQNIgDABS21o9BXATA4A0UwYAqVEREdStlV9J3U19NTwMSJopA4DUrgOAmqtzz8zM7LuYbXAGQJopA4DUrtbX/xfpywAgTcwAILVrDgHgPOCqinYGAGliBgCpXc0HgG6p4ayKptePiH36rkfS2hkApHY1HwAW7M9ZAGlCBgCpXQYASYMxAEjtMgBIGowBQGqXAUDSYAwAUoMiYmfg4Iqml2TmRX3XswMGAGmGDABSmw4Cdq5oN/anf/A0QGmWDABSm+Yy/b9InwYAaUIGAKlNh1e2Gz0AZOaFwGUVTQ0A0oQMAFKb5jQDUNvvHhFx494rkbQmBgCpTasQAMBZAGkyBgCpTQYASYMyAEhtMgBIGpQBQGqTAUDSoAwAUmMiYjfggIqmF2XmpX3Xs0YGAGlmDABSew4FoqJd7YE8ffAwIGlmDABSe+Y2/b9I3wYAaSIGAKk9swsAmXkJ8L2KpodEhD+HpAn4B09qz+wCwAL97wrcpO9CJO2YAUBqzyoFAHAZQJqEAUBqz2zuAeipfwOANAEDgNQeZwAkDc4AILWnZkBM4My+C1knA4A0IwYAqSERsRewX0XT8zPzqr7rWScDgDQjBgCpLXOd/gcDgDQrBgCpLbWD4ZSnAG5yBmUpYr0MANIEDABSW2Y7A5CZVwLfqWh6UETs0nc9krbPACC1ZbYBoFNTx07AwX0XImn7DABSW1YxAIDLANLoDABSWwwAkkZhAJDaYgCQNAoDgNSWmoFwA3BO34VUMgBIM2EAkBoREfsBe1c0PTszN/RdTyUDgDQTBgCpHXOf/gcDgDQbBgCpHcsQAM6mLEmslwFAGpkBQGrH7ANAZl5D3X6E/SNi977rkbRtBgCpHXM+BnhLNYEkgEP7LkTSthkApHbMfgag4z4AaQYMAFI7DACSRmMAkNphAJA0GgOA1ICIqF0Dr72Bb0gGAGkGDABSG/YHanbBn5mZ2XcxCzIASDNgAJDacHhlu9am/8EAIM2CAUBqw7Ks/wOcB1xV0c4AII3IACC1YWkCQLckcWZF0/0iYq++65G0dQYAqQ1LEwA6LgNIjTMASG1YllMANzEASI0zAEhtcAagMABIIzEASG0wABQGAGkkBgBpYhGxM3BwRdNLMvN7fdfTEwOA1DgDgDS9g4CdK9q1+ukfDABS8wwA0vSWbfofDABS8wwA0vSWLgBk5oXApRVNDQDSSAwA0vSWLgB0aurbOyL27b0SSddhAJCmt0z3AGzJZQCpYQYAaXrOAPwwA4A0AgOANL1lOwVwEwOA1DADgDS92gGv5sKdMRkApIYZAKQJRcRuwAEVTS/MzJpd9mMyAEgNMwBI0zoUiIp2ra//gwFAapoBQJrWsm4ABAOA1DQDgDStpQ0AmXkJUHNXwaF91yLpugwA0rSWNgB0at5U2CMi9u+9Ekk/xAAgTWvZA4DLAFKjDADStAwAW2cAkAZmAJCmtazHAG9iAJAaZQCQplUz0CXtHwK0iQFAapQBQJpIROwF7FfR9LzMvKrvegZiAJAaZQCQprPs6/9gAJCaZQCQprMKAeBMypLFehkApIEZAKTpLH0AyMwrge9UND04Ivz5JA3IP2DSdJY+AHRqDgPaFTiw70IkbWYAkKazKgHAfQBSgwwA0nQMANtnAJAGZACQpmMA2D4DgDQgA4A0nZoB7hrgnL4LGZgBQGqQAUCaQETsB+xd0fTszNzQdz0DMwBIDTIASNNYlel/MABITTIASNNYpQBwNlAza2EAkAZkAJCmsTIBoFuyqNm3cGBE7NJ3PZIKA4A0jZUJAJ2auncCDum7EEmFAUCaxqoFgJrTAMFlAGkwBgBpGqsWANwIKDXGACBNwwCwNgYAaSAGAGlkERHAoRVNa2/Wa4EBQGqMAUAa3/7A7hXtzszM7LuYkRgApMYYAKTx1Q5qtRvpWmAAkBpjAJDGt2rr/wDnU5Yw1ssAIA3EACCN7/DKdrMNAN3SxVkVTfePiD36rkeSAUCawirOAEB9/TUbJiXtgAFAGt+qBgAPA5IaYgCQxreqAcCNgFJDDADS+AwA62MAkAZgAJBGFBE7AwdXNL0kM7/Xdz0jMwBIDTEASOM6CNi5ot3cP/2DAUBqigFAGteqTv+DAUBqigFAGtcqngIIQGZeBFxa0dQAIA3AACCNa5VnAKDu97FvROzdeyXSijMASOMyANRxFkDqmQFAGtfKHQN8LQYAqREGAGlcqz4D4GmAUiMMANK4Vj0AOAMgNcIAII0kInYDDqhoemFmXtZ3PRMxAEiNMABI4zkUiIp2y/LpHwwAUjMMANJ4Vn36HwwAUjMMANJ4Vj4AZOalwEUVTQ/tuxZp1RkApPGs7CmA11ITaPaOiP16r0RaYQYAaTwrPwPQcRlAaoABQBqPAaCo/f24DCD1yAAgjccAUHgYkNQAA4A0nppjgBM4q+9CJuYSgNQAA4A0gojYC6jZxHZeZl7Vdz0TMwBIDTAASONw+n8zA4DUAAOANA4DwGZnUpY21ssAIPXIACCNwwDQ6ZY0zq9o6lsAUo8MANI4DAA/rOb3tUdE7N97JdKKMgBI4zAA/DD3AUgTMwBI4/AY4B9mAJAmZgCQxuEMwA/zMCBpYgYAaRw1A9c1wLl9F9IIZwCkiRkApIFFxL7A3hVNz87MDX3X0wgDgDQxA4A0PKf/r8sAIE3MACANr+YOAFjuAHAOUDO7YQCQemIAkIbnDMC1dEsbZ1c0PSQi/Lkl9cA/SNLwDABbV/P72wU4sO9CpFVkAJCGZwDYOvcBSBMyAEjDMwBsnQFAmpABQBqepwBunQFAmpABQBpQRAR1t9hdkZnf6buexngaoDQhA4A0rP2B3Svandl3IQ1yBkCakAFAGpbr/9tmAJAmZACQhmUA2LbvAFdWtDMASD0wAEjDMgBsQ2YmdUsdB0bErn3XI60aA4A0LI8B3r6a3+dOwMF9FyKtGgOANCxnALbPfQDSRAwA0rAMANtnAJAmYgCQhmUA2D4DgDQRA4A0kIjYmbq16osz83t919MoDwOSJmIAkIZzELBzRbtV+fQPzgBIkzEASMNx+n/HDADSRHaZugBpidUOUntHxJP6LKRx17D+n0UGAGlBBgBpOLWD1L26L23b/hGxR2ZeMXUh0ly5BCANx0+pw6q5ZVFSxwAgDccAMCy/v9ICDADScGqPAdbaGACkBRgApOE4QA3L76+0AAOANICI2A04YOo6lpwBQFqAAUAaxqFATF3EkjMASAswAEjDcHAant9jaQEGAGkYDk7D83ssLcAAIA3DwWl4+0bE3lMXIc2VAUAahgFgHH6fpUoGAGkYDkzj8PssVTIASMNwYBqH32epkpcBScOoGZiuAn6u70Jm4l7A71a0MwBIlQwAUs8iYi/ghhVNz8rMt/ddzxxExHcxAEijcglA6l/toHRmr1XMyxmV7QwAUiUDgNQ/A8D6nQVsrGhnAJAqGQCk/hkA1ikzrwHOqWhqAJAqGQCk/hkA6pxe0WaviNiv90qkFWAAkPpnAKhTEwDAWQCpigFA6p8BoI4bAaURGQCk/hkA6jgDII3IACD1r2ZAugY4t+9CZsYZAGlEBgCpRxGxL1BzQ905mVnzGtwycQZAGpEBQOqX0//1nAGQRmQAkPplAKiUmd8BLq9oagCQKhgApH4dXtlu5QNAp2YW4NCIiN4rkZacAUDqlzMAi6kJALsD+/ddiLTsDABSvwwAi3EjoDQSrwOW+lU7EL0pIt7UayWr5TDgpKmLkObEGQCpX34SnYbfd2mdDABST7qNaIdOXceKMgBI62QAkPqzP2VDmsZnAJDWyQAg9cdBaDp+76V1MgBI/XEQmo7fe2mdDABSfxyEpnNwRPjzTFoH/8BI/TEATGcX4KCpi5DmxAAg9af2GGD1wwAmrYMBQOqPA9C0/P5L62AAkPrjADQtv//SOhgApB5ExM64Bj01A4C0DgYAqR8H4d0aUzMASOtgAJD64eAzPf8dSOvw/wHq9fqvIDOulQAAAABJRU5ErkJggg==;" parent="8uBbU_594jC50RYXib-e-31" vertex="1">
          <mxGeometry x="4.5" y="3" width="25" height="25" as="geometry" />
        </mxCell>
        <mxCell id="8uBbU_594jC50RYXib-e-35" value="&lt;font style=&quot;font-size: 9px;&quot;&gt;Wind&lt;/font&gt;" style="text;html=1;strokeColor=none;fillColor=none;align=center;verticalAlign=middle;whiteSpace=wrap;rounded=0;" parent="8uBbU_594jC50RYXib-e-30" vertex="1">
          <mxGeometry y="22" width="60" height="30" as="geometry" />
        </mxCell>
        <mxCell id="8uBbU_594jC50RYXib-e-38" value="" style="group" parent="8uBbU_594jC50RYXib-e-30" vertex="1" connectable="0">
          <mxGeometry x="60" width="66" height="52" as="geometry" />
        </mxCell>
        <mxCell id="8uBbU_594jC50RYXib-e-39" value="" style="group" parent="8uBbU_594jC50RYXib-e-38" vertex="1" connectable="0">
          <mxGeometry x="13" width="33.25" height="33.25" as="geometry" />
        </mxCell>
        <mxCell id="8uBbU_594jC50RYXib-e-40" value="" style="ellipse;whiteSpace=wrap;html=1;aspect=fixed;fillColor=#e0e0e0;strokeColor=none;shadow=0;gradientColor=#d6d6d6;opacity=20;" parent="8uBbU_594jC50RYXib-e-39" vertex="1">
          <mxGeometry width="33.25" height="33.25" as="geometry" />
        </mxCell>
        <mxCell id="8uBbU_594jC50RYXib-e-41" value="" style="ellipse;whiteSpace=wrap;html=1;aspect=fixed;fillColor=#F6F7FB;strokeColor=#FFFFFF;shadow=0;" parent="8uBbU_594jC50RYXib-e-39" vertex="1">
          <mxGeometry x="1.5" width="31" height="31" as="geometry" />
        </mxCell>
        <mxCell id="8uBbU_594jC50RYXib-e-42" value="" style="shape=image;verticalLabelPosition=bottom;labelBackgroundColor=default;verticalAlign=top;aspect=fixed;imageAspect=0;image=data:image/png,iVBORw0KGgoAAAANSUhEUgAAAgAAAAIACAYAAAD0eNT6AAAABHNCSVQICAgIfAhkiAAAAAlwSFlzAAAOxAAADsQBlSsOGwAAABl0RVh0U29mdHdhcmUAd3d3Lmlua3NjYXBlLm9yZ5vuPBoAACAASURBVHic7d13vB9lmf//15VAAqGFEppAkBZQmgpBBSShiA1dOxZYdHcVlfVrWX34c11dv651V11dxbbuuuq6X9e1oGsBEUIRRErovYSWACGUJCaElOv3x0zISc7JOZ/P+Vwz98zc7+fjcR5Y4JqbnHtmrrnuZu6OiEjXmdlrgB8NGOYid39BRHukeczsfGDWgGFe5e4/DWhO5SakboCISE12DYhxf0AMaa6tA2IsCYhRCyUAIpKLXQJizA+IIc21TUCMxQExaqEEQERysVdADFUAuk0VABGRLjGzicAJAaGUAHSbEgARkY45Etg2II4SgI4ys8nA5IBQSgBERBrklUFxlAB0185BcZQAiIg0gZntCrwtINR8YF5AHGmmGQEx/uTuawLi1EIJgIh03SeAKQFxfuHaOKXL9g+IcXdAjNooARCRzjKzw4HTgsKdFRRHmimiAnBzQIzaKAEQkU4ys52AHxPznFsKnBcQR5orIgG4JSBGbZQAiEjnmNkkipf/7kEhz3b3FUGxpJlUARARaTMz2wb4OcXSvygq/3dYWS3aLSBUqxKATVI3QEQkipntS/Hyj5jQtdZjZUzprtlBcVqVAKgCICKtZ2abmdkHgMuJffkDfNrdHw+OKc1ybECMBe7emnMAQBUAEWkxM9sKeD3wUeLG+4e6F/hyBXGlWSISgBsCYtRKCYCItEI5sW+X8udQ4BUUD+5JFV72o+7+RIXxJTEz2x3YOyDUBQExaqUEQESSMbPNgAOAZwLPAKYBW1EcyrLhz1TAamzedcB3a7yepHFcUJzzg+LURgmAiNTCzLageNjOpHjhP5Piy6upc5E+1KZtXWXcXhsQYxnwx4A4tVICICKVMbP9gRcDLwFeQLXl+kjfdfdfpW6EVKtc/vfCgFAXu/vKgDi1UgIgIqHM7DkU2+++FHh62taMyx+IOTxImu8NxLwHW1f+ByUAIhKgHMs/GXgHRYm/re4DXqld/7JxSlCcViYApsOtRGS8zGxvipf+W4DtEjdnUMuAo9x9buqGSPXM7BnELN1bDGzv7qsCYtVKFQAR6Vv54v808BrqnZlfFQdO08s/K1HDPGe18eUPqgCISB/MbHvg74B3Apsmbk6UJ4HT3f3fUzdE6mFm04B5wJSAcMe7++8C4tROFQARGZOZTQbeDXyYYj1+VywEXuXuF6duiNTqfcS8/O+lpeP/oARARMZgZi8DvgJMT92WYNcCL3f3u1M3ROpjZtsC7woK9/027xXR1A04RCQxM9vczL4K/ILuvfx/Bhypl3+W3k2x22SEVu8UqTkAIjKMmR0K/IBim94uWQT8A/Al18MvO2a2HXA7sG1AuD+6+xEBcZJRBUBEnmKF9wOX0a2X/zLgU8De7v7Pevln69PEvPyh5V//oAqAiJTMbCrw38AJqdsSaBXwbeDj7r4gdWMkHTM7AriUmGWrjwDT3X1pQKxkNAlQRDCz3YDfUBzQ0wX3Uozzf8Xdb03dGEnLzCYCXyduz4ovtf3lD0oARLJnZgcCvwZ2S92WAV1H8dL/mbtflbox0ihnAIcGxVoMfDkoVlJKAEQyZmbHAGcB26RuS48eBxYA84f8dR7wG3e/M2G7pKHMbE/g/waGPNPdHwuMl4zmAIhkysxeRzGRaXLqtgCPUezLfj1wE/AwxZfW40P++qC7L0vWQmkdM9sUuJi4A6qWAXu6+8KgeEmpAiCSITN7LfBfpFsJdBfFsMNvgKvc/f5E7ZBu+xyxp1N+sysvf1AFQCQ7ZjaL4sVb95f/ZcAPgV+7+801X1syY2avoJgTEmU5sI+7zw+MmZQqACIZMbODKR6Kdb38l1FUGs7UxDypi5lNB6IPd/qHLr38QRUAkWyUD8VLgF1ruNxDwGeBf+vKhClph3I/iwuBgwLD3gIc7O5PBsZMThUAkQyUx/ieTfUv/+XAF4DPuvuSiq8lsh4z2wz4ObEvf4B3de3lD0oARDrPzCZRLPWbUeFlnGJFwUfc/b4KryMyonKznx8ARweH/n/u/rvgmI2gBECk+74MHFlh/HuBU919ToXXEBnLmcArg2MuBt4XHLMxdBiQSIeZ2duAt1d4if+iGBudU+E1RDaqPMDqi8DbKgj/0S6fIaFJgCIdZWYnAL8ENq0g/GLgHe7+gwpii/Sk3OjnO8AbKwj/O+CF7r6mgtiNoARApIPM7NnAHGCrCsLPB17s7tdWEFukJ2a2JfBj4IUVhH8QONTdH6ggdmNoDoBIx5jZ04FfUc3L/xbgRHe/u4LYIj0xs2kUffywCsKvAU7p+ssfNAdApFPMbEeKXf52qiD8H4Aj9fKXlMxsJvBHqnn5A3zG3X9bUexG0RCASEeY2V4Ua/33qSD8H4DjdBiPpGRm76HY37+KeS1QHBw0y91XVxS/UZQAiHRAOeb/K6r58r8VeL67L6ogtsiYzGxbiq19X1HhZRZRjPtns4+FhgBEWs7MjqeY8FfFy/8BijF/vfwlCTObDcyl2pf/MuCknF7+oARApLXMbIKZfZjqJvwtAV7i7vMqiC0yKjPbycy+B5wHTK/wUiuB17j7pRVeo5G0CkCkhcxsT+B7wFEVXcKBN7n73Irii4zIzCYApwOfBKZWfDkH3uruv674Oo2kCoBIy5jZqcA1VPfyB/g7d/9FhfFFhinL/ZcBX6X6lz/A+9z9+zVcp5E0CVCkJczsOcDngWMqvtQP3f3kiq8h8hQzezHwEeD5NV720+7+4Rqv1zhKAEQazsz2AD5Fsd2pVXy5Cygm/a2o+DqSOTMz4M+AvwWeU/Plv+Tu76n5mo2jBECkocxsBvAu4K+AzWq45HXA0e7+eA3XkkyZ2T7Am4FTgL0SNOEj7v7JBNdtHCUAIg1Snmn+CuCdwLFU/8W/1j3A89x9fk3Xk4yY2XbA6yle+s9L1IzVFAdYfSvR9RtHqwBEEjOzzYBZwIuBVwNPq7kJj1CU/fXylxBmNpliPH82RSI7k+p27+vFCuAN7v7ThG1oHCUAIjUzs22AA4FnAy+ieEhunqg5y4CXufvNia4vLWdmmwP7ATOAZwBHU7z86xi26sVi4BXuPid1Q5pGCYA8pZyUs2X5s9WQ/6zlov2ZSPHnt3X5sw2wPXAAxYt/t3RNW8/DFC//y1I3RJrBzCaxfr/d8D+v/etUYG+Kl/7u1DdU1a9bgdfq6OqRKQHISDm+PJ3iph36sy/FDb0Fzb2RJdY8irL/rakbIvUzs62AQ4GDgUPKvz6TIuHviv8ETnf3pakb0lRKADrMzLakKMcdS1FmPhCYnLRR0gRXU2zxuyB1Q6Q+5ez7k4CXUTwXUo7JV2kZ8Nfu/m+pG9J0SgA6pPzCPwo4jmZMvJHmOQ94pbsvTt0QqZ6ZTQPeTrHsbkbi5tThBuB17n5j6oa0gRKADjCzA4E/B94E7JK4OdJc/wq8y92fTN0QqZaZPQt4N/AG8qj6OfBN4L3uvjx1Y9pCCUBLmdmOFDvDnQo8K3FzpNkWAX+lJVDdV24X/U8Uy0pzcS3wTnf/feqGtI0SgJYpv/Y/DLwW/f5kbOcAp2m8v9vMbGeK7aJPI5+JvEuAjwH/4u6rUjemjfQCaQkzO4xiz+xXkM8NLuP3BPAh4Muu7T47q5z38wGKZ0OXZvCP5b8pyv3avGoASgAazsyOpri5T0zdFmmNC4Az3P361A2R6pjZ7sAPqPZY6Ka5Evj/3P23qRvSBUoAGsrM9gS+TLFsR6QXtwIfdPezUjdEqmVmJwHfAbZL3JS6XAL8g7v/OnVDukQ7vDWMmU02s48AN6KXv/RmEcWM7wP18u82M5tgZp8Hfk4eL//fAbPd/Ui9/OOpAtAgZvZC4CsUO/OJjGUp8DXgkzrCt/vKbXq/TzEBuMtWA78EPu3uf0jdmC5TAtAAZjYV+DrFcZkiY7mR4sX/XW3okwczmwL8hG7PBboO+C7wn1q1Ug8lAImZ2Uzgh8CeiZsizbYS+CnwNZ1qlpfyA+GXFCfsdc1DFBMZ/8Pdr07dmNyYVgilY2bvAT6HtuuVka0ELqZ4+P9AX0X5MbPJFOPgR6ZuSxAHrqfYkvoc4Byt4U9HFYAEyoz+34E/S90WaZz7gV8DvwLOdfclidsjaf0r7X/53wScX/7McfeHE7dHSkoAamZmB1A83PdM3BRJbwHF19AN5c8fdW65rFWuBnpz6nb04WHg5g1+rnT3B5K2SjZKQwA1MrPnUpRz27B8ZzWwkOKmXp24LW2zmmKb0sUb/Cyh+DO9EbjB3R9N1kJpNDN7LcXcoJS7fj4K3Ac8zrr+u/Zn7X9/hGL/iZvdfVGidkqfyir0NCUANTGzFwP/A0xJ3ZbSXcCFwHzgQYrJOA8O+VmkLWRF6mdm+wNXAFvUdMn5FFvr3gjcC9wD3OPuS2u6vgQxMwMOAp4L7AxMG+Fne8p5ZxoCqIGZnQL8G2n/vP9EMQZ3NnC2u9+WsC0iMgIz2xz4EdW//JdSLCv8HnCeu6+p+HpSgfIsiEOBY8qfo4Fte/3nlQBUzMzeC3ye+kt5TnFM5tnlz8U6B16k8b4CHFhh/NuAvwd+5u7LKryOVKD8wp/Juhf+UcDW446nKm91zOztFBv81OlJiqz+s/rKF2kPMzsV+I+Kwq+m+BD5mLs/UdE1pCJmtjXFUc9nELhTrBKAipjZqyhKeXWdt7AM+BbwT+5+X03XFJEA5eqgy6mm9H8d8FZ3v6KC2FKhsl+cAZxKBcc9KwGogJnNAn4DTK7hco9TlA2/5O4La7ieiAQqt/n9I/DM4NAOfBz4lLuvDI4tFTGzCcDLgL8Gjq/yWpoDEMzMDgXOovqX/8MUJb0ztR+8SKt9nfiXP8AZ7n5mBXGlAuVhT++iePE/vY5rKgEIZGbTKXZxG/ekjB79kqKk91DF1xGRCpnZF4BTKgj9Ib3828PMjga+ARxQ53XrGp/uPDPblGLjjp0rvMxy4F3u/jK9/EXazcw+Aby3gtCfdPfPVhBXgpnZtmb2LeACan75gyoAkT4LHFFh/KuBN7r7TRVeQ0RqYGYfAj5SQegvuXsVcSWYmb0B+Gdgx2Rt0CTAwZnZyynG/avgwD8BH9E6fpH2M7O/Br5cQehfAidpB89mM7OnA18DTkzeFvWVwZTj/nPpY/elPtwPnOru51UQW0RqZGbbAV+kWNIV7T7gUO3H31zl7P6/odiIafO0rSloCGAAQ8b9q3j53w7M1pp+kfYzs1cCZ1LNHKFVwMl6+TeXme0M/ACYnbotQykBGMx7qGbcXy9/kQ4ws2kU+3S8rsLLfMTdf19hfBmAmR0H/CewU+q2bEhDAONkZrtRnHcdvXOXXv4iLWdmM4E3lz9VVAjX+hXwMo37N09Z8v874KM0dMWdKgDj90X08heRUjm5600U6/r3q+GS91HMEdLLv2HMbCeKr/7jUrdlNEoAxsHMXgi8JjisXv7SKuXJZNtR7FFe92mXKU0Dpg/52ZNi57ZnUt+fwyrgDRr3bx4zm00x3l/lnjCDWgMsUgLQJzObTDGmF0kvf2ksM9sXOBZ4HrALxVjmjhQvQj1D0jjD3S9O3QhZx8ymAp8B3kYzEuKbgQsp9pB5CFg45OcRd1+jm7d/7yXwOEZgCfBCvfylKcxsW4rDSI6jePHvnrZFsoEvuPs3UjdC1jGzkyk29Uk10c8pTn28kGJXwQt72S1WkwD7YGZbAPOAHQLDvsXdvxMYT2RczGw/4P8Af041x9LK4M4CXuXua1I3RBqxqc98isOkvunuD/b7D6sC0J+3E/vy/6le/pKamR1LUdl6Kc0oXcrIrgDepJd/ema2A/BO4EOk2dTnUordJH88yFHPqgD0qBz7v4tiDDTCg8CB7v5wUDyRvpjZnsC/0vCZygLAxRTL/R5P3ZCcmdlzgDOAk4HNar78GoqVBV9y9ysjAqoC0Lu3EvfyB/gLvfwlhXL2/rsoJiyp1N98vwFe7e7LUjckR2Y2iWLV1xkUE2FTuAZ4m7v/MTKoKgA9MLNNgNsolvtE+Ia7nx4US6RnZrYP8G3gBanbIj35H4qyvw4Cq5GZ7QXMKn9OJN2Jfcsozg74oruvig6uCkBvXk/cy/924P1BsUR6Vu5f8WOKdfvSbKuBTwCf0Jh/dcpq2FSKNfvPo3jhHwPskbBZa/0GeKe731XVBZQA9OYtgbH+wt3/FBhPZExm9nrge8CmqdsiY7qP4qv/wtQNScnMtqT48NpmyM/WG/znfvvzVIr9K9b+7EDz3oOLKV78/1n1hTQEMIZyz/+7idnL+QJ3nxUQR6RnZvYuihnDjdyPXNbzc4qlwY+kbkhdyjH2/YEDN/jZk/xWpcwFXufut9dxsaZlPk30ZuIenJ8JiiPSEzP7GMUYojTbXcAH3P3HqRtStfKQnJkUy05fChyE3kVQHBf9PndfUdcFVQEYg5ndCBwQEOpqd39WQByRnpjZW4B/S90OGdVS4FMUu/vV9uCvm5ltTTGZ7qXASyjK71JYDPylu/+o7gsr6xqFmR1OzMsf9PUvNTKzwyi+KKSZFgPfAT7t7g8kbkslzGwicBLwDmA2mn8ykqsoSv53pLi4EoDRnRIU5w6K5TwilSt3Kfsx9W9UImO7DfgX4DvuviR1Y6pgZtOAvwROpxmz6ZtoDcW8nA+lrPwoARjdi4Pi/KO7rw6KJbJR5VfXD9GDt0nmA7+kSMrO8Y6Ou5rZTIoNpl4PTE7cnCarZFOf8dAcgI0ws92BewJCPQDs2eXxPWkOM/sb4B9TtyNzS4FrgXOA/wWu6upLH54aKv0CcFTqtjTccooJuV+oYlOf8VAFYOOODYrzVb38pQ5mth3wtzVfdhWQ074WTvHv+9iQn0cpSvvXUbz47+zyC3+tcon0p4E3kd9yvX6dA5xe5aY+46EEYOOiDkj536A4ImP5CMVGJ1V5lKI//4JiR8sFwEPaqS4vZjYF+CDwAWBK4uY03UPAe939B6kbMhINAWyEmd0HPG3AMA8DO+bwNSBplXuX3wRMqiD8ZRSly3ObUrqUNMzsVIpli4M+G7tuBcUqjw83eVMnVQBGYGb7EdPBz9fLX2ryKeJf/rdRzFL+SXBcaZlyZcm/Ay9L3ZaGuwf4OvCtNpz2qgRgZM8PinNuUByRjTKz6cDrgsOeBbzZ3ZcGx5WWMbPjKM6RiDwOvWvOA74C/LxNK76UAIxs/6A4vwuKIzKak4mdhPVp4G9VvcqbmW1KcSLhB9Ekv5EsBb5LMdH7xtSNGQ8lACObERBjXqrdnSQ7bwiM9Vl3/3BgPGkhM9sb+C/g8NRtaZgFwAUUH3f/7e6LE7dnIEoARhaRAOjrXypnZgcAhwSF+wWgl3/mzOxFwH8DW6VuSwPMB+ZQvPTnuPutaZsTSwnABsqd1PYOCKUEQOpwclCcuyjOoNeSvoyZ2ckUZe2c9u1fAywCFpY/dwMXUbzwazmWNxUlAMM9nZjZ1LPNLOrLTGRj3hQU58Nd3ZteemNm76LYnz7q+PMo91PsqDp086XHy7+u7COOl//MQool2mtf+I/kmvhqH4ANmNlL0eY9kpcrgcM16S9fZvYxir0eUloF3ECxV/41wNXANe6+KGmrOkwVgOF2Td0AkZp9Qi//PJmZUXz1n5GoCcuAs4GfAr9w98cStSNLSgCG08QXyclSigew5OnbwFtqvuYyiuPRfwqc7e7La76+lJQADKcEQHJytrs/kboRUj8z+zj1vvwXUWyW85U27JKXAyUAw22ZugEiNfpV6gZI/czsz4GP1nS5eRTHBX/b3ZfVdE3pgRKA4VQBkJzcmboBUi8zmw18q4ZLLQI+BPx7m7bHzYkSgOGUAEhO5qdugNSn3DjqJ1S7zt8pTsL7oEr9zaYEYDgNAUhOlABkwsx2ohjymVrhZW4ETnf3iyq8hgRRAjDc5qkbIFIjjcl2iJltDuwF7AbsvsHPgcDOFV3agU8C/9fd+9mcRxJSAjCc/kwkJ5sAT6ZuhPSvXMO/P3DEkJ+DqP8ZtgQ4xd3Pqvm6MiC97IbTn4nkRAlAi5jZrsArgZOA5wLbpG0RtwF/1tbjcHOnl91wOR2CIaL+3nDl0byvKn+OACxti57ya+CN2r2vvZQADKc/E8mJ+nsDmdmWwKnA24g77jnSd4C/yPUQna7QzT+c/kwkJ+rvDWJm+1Lsy38asHXa1mzU99DLvxN08w+nkqjkRP29AczsROA9wIk0p8Q/kh8Ab9HLvxuUAAynPxPJifp7Qmb2XOBzwNGp29KDHwKnale/7tDNP1zEn8mPgdsD4ohszCTgvQFx9AxIwMz2Az4FvDp1W3r0a+DNevl3i+kY8PWZ2Txg+oBhXuLuvw5ojsiIyg1fIjbxOcDdbw6IIz0wsx2BjwN/SXuSr3uAZ7n7I6kbIrHa0gHrFDEmqnXVUrUVQXE0B6AmZnYy8C/ADqnb0oeVwOv18u8mJQDDRfyZRD2cRUbk7mvMbBWD91c9AypWfvV/jWIdf9t80N3/kLoRUo0JqRvQQEoApC0i+pkSgAqVX/030M6X/0/d/Z9TN0Kqo5t/OA0BSFusALYYMIaGACpgZlOAbwMnp27LON0EvCV1I6RaSgCGUwVA2kIVgAYys+nAz4BDU7dlnB4EXuruj6duiFRLQwDDRTwQVQGQOkT0MyUAgczsBcDltPfl/1vg2e5+V+qGSPV08w+nCoC0RUQ/0xBAEDN7B/Al2vVnuhqYD/yeYsjid6614dlQAjCEmU0kZhtOVQCkDhoCaAgz+wIxGzNFeQK4G3iAoqQ/9K/r/W/uvipVIyUt3fzri/rzUAVA6qAEIDEzM+ArwDtTtwW4Djin/LnQ3Z9I3B5pON3864sq3akCIHXQEEBC5cv/G8BfJWrCQoox+3OAc9x9QaJ2SEspAVifKgDSJqoAJGJmEyjGzE+r+dJPAt+l2FhorsbrZRC6+dcX8eexUjel1EQJQALll/93gFNqvOwy4JvA5939vhqvKx2mm3992gRI2kRDAGl8lvpe/o9RzDH4krs/XNM1JRNKANanJYDSJtoHoGZm9jbgAzVc6kHgi8DX3H1xDdeTDOnmX582AZI20RBAjczsROCrNVzqqxSH8EQc9yyyUbr516cKgLSJEoCamNlBwI+o9s/rIeAt7v6rCq8hHVGeMrkNsOUIP5N7iaGbf32aAyBtojkANTCz7YFfAltVeJlfAm9194cqvIa0jJltATwT2K/8mVH+dV8GPwhMCcAGVAGQNlEFoB7fAHavKPZy4G/c/cyK4kuLlKdIPh+YDcwCDqfCJF03//qUAEibKAGomJmdBry6ovBzgTe5+00VxZcWMLMZFMdGnwDMpMaqnG7+9WkIQNpEQwAVMrO9gC9XFP5/KF7+el5kyMx2pnjpvwk4LFU7lACsTxUAaRNVACpSHgz2PaoZ9/8x8AYdwpMXM9sUeC3w58BxwMS0LdLNvyFVAKRNIvqaKgAj+yDFWGy0nwAn6+Wfj3Jc/y+B9wN7JG7OepQArG/LgBiqAEhdIvpaRJ/vFDPbDfhIBaF/hl7+2TCzbYEzgHcDOyRuzoiUAKwvotynCoDUJSIBqHJpW1t9DpgSHPMs4HXuvjI4rjSMmW0J/C3Fy7/RCbYSgPVFPAxfbGbzAuKIjCXi4aIEYAgzez7whuCwPwdeq5d/95nZ64AvAE9L3ZZeKAFYX8TDcAowPSCOSB2UAJTKU/6+FBz2PPTy77xyKd9XgONTt6UfE1I3oGH0MJTcqM+vcxqxS7IeAU7VUr/uMrPNzexTwLW07OUPqgBsSA9DyY36PGBmmwAfDw57urvfHxxTGsLMngH8EDgwdVvGSxWA9elhKLlRny+cTOx2v9919x8FxpMGMbO3ApfT4pc/qAKwIT0MJTfq84UPBMaaB/x1YDxpCDPbCvg68MbUbYmgBGB9ehhKbhq9TKkOZvYi4OCgcGuAU9x9cVA8aQgzO4TiSOh9U7clioYA1qcEQHKziZltnroRiUV+/X/G3S8OjCcNYGazgQvp0MsfVAHYkBIAydFWFMfSZsfMng0cGxTuauDvg2JJQ5jZa4DvA5NTt2UUa4CHgAXAfGBpL/+QEoD1KQGQHG1F8fDI0V8Exvp7rffvFjM7HfgqzaiW3wZcANxP8ZJfMOSvD7r76n4DKgFYX/bjoZKlLPt9eeLfa4PC3Uyx4590hJl9jLQVndXAJcAvgJ+7+y3RF1ACsD5VACRHufb744BpQbH+0d09KJYkZGaTgK8Bb01w+SXA2RQv/V+6+6IqL6YEoGRmE4AtUrdDJIFcE4CoPf/nU4wRS8uZ2Y7Aj4Gjar70WcCZwJw6d45UArBOlmVQETJMAMxsMvDKoHBf1Ha/7Vcu8/s5sEeNl70I+JC7X1LjNZ/ShIkNTZHdQ1CklGPffwmwTUCcx4FvBMSRhMzs1cDvqe/lfz1wkru/INXLH5QADJXjQ1AE8uz7LwqK8zV3XxIUS2pmhY9RbPBTxxDwPRSHTh3i7v9bw/VGpSGAdXJ8CIpAnn1/VkCMFcQfHyw1MbMpwH8Ar6nhcouATwJnuvuKGq7XEyUA60Q8BG8FXh8QR6RX/4fii2IQWSUAZrYLsF9AqIvc/YGAOFIzM3s+xaS7Q2q43IXAq9394Rqu1RclAOtEPAQfcPerA+KI9MTMbg0Ik1UCABwTFOd3QXGkJmZ2IMWX+MtruuQ3gTOaukGUEoB1Ih6CjwbEEOnHYwExcksAZgXFOTcojlTMzKYDHwdOoZ65b6uA97j7V2u41rgpAVhHCYC0UUSfUwLQv0eBqwLiSIXMbBrwt8A7gEk1XfYR4LXufl5N1xs3JQDrKAGQNlIC0Acz2xqYERDqfHdfExBHKmBmWwHvA95Pvf37RuDl7n5HjdccNyUA60R0kkcCYoj0QwlAf6KOc1X5v2HMbCfgZcBJwAnAlJqb8L/AG9u0LFQJwDqqAEgbKQHojxKADikn9b28/JkJWKKmfB74YNuqwMbyuAAAIABJREFUQkoA1lECIG2kBKA/EQnAve5+W0Ac6UO5bn8XYB+KnRxfDuyZsk0UJ/a9293PTNyOcVECsI4SAGkjrQLoT0QCcKeZRe0kKOtMAHYAdqZ40e8y5D/vDGydrmkj+hNwchN29BsvJQDrKAGQ1nH3VWa2lMEOs9rCzCyT42wjEoBjiNtLQNrpAeBl7n5l6oYMQmcBrKMEQNpq0H6X01HYe6dugLTeDcARbX/5gxKAobQKQNpK8wB6t23qBkirnQcc6e73pG5IBCUA60Q8GCLGY0X6FZEAdP7FaGabo2FPGZ/VwOeAF7n746kbE0U3wzrTBvznlzZ1v2fpvIgEYND+3wa5VDkk1vXAW9398tQNiaYKAE/tGrXZgGE0/i+pRFSedgyI0XRKAKQfK4FPAM/p4ssfVAFYK+LhpwRAUonoe0oARNaZC7zF3a9J3ZAqqQJQiCh/KgGQVDQE0BslADKWFRSHB83s+ssfVAFYSxUAaTNVAHqTy1JHGb/T3P3/pW5EXVQBKEQ8/LQEUFJRAtCbTVM3QBrvT6kbUCclAAUNAUibaQigN6p4yliy6iNKAAoaApA2UwWgN1k93GVcsuojSgAKSgCkzbQMsDdZPdxlXLLqI0oAChoCkDYL2QnQzLr+8Ov6v58MLqs+ogSgoAqAtFlE3zOKo1i7LKuHu4xLVn1ECUBBCYC0lruvAJYHhOr6MIBWAchYsuojWWU7IzGzqC8fLQOUlB4FNh8wRtdXAkQ875YDtwbEkXh7A1sOGCOrd2JW/7IbMZWYrG9hQAyR8VoI7DpgjK5XACKed9e5+xEBcSSYmZ0DnDBgmKzeiRoCiHnoPeHuOgpYUnogIIYSgLE9ERBDqhExDKYEIDMRZc8HA2KIDCIiAdAQwNgiXjJSjYjkTAlAZiK+ehYExBAZhCoAY1MC0G2qAPRJCUDMQy/i4SsyiIgktOsJQMRcHyUAzRVRAchqFYASgJiypxIASU1DAGPTHIBuUwWgT0oAVAGQbtAQwNg0BNBtmgPQJyUASgCkG5QAjE0JQLcpAeiTEgANAUg3RPTBrc1sckCcplIC0G0aAuiTEgBVAKQD3P1xYr6AujwPQHMAuk0VgD4pAVACIN2hYYDRaRVAt0X8brQKIBdmNgHYPiCUEgBpAq0EGJ2GALpNFYA+ZZ0AULz8B/0zeKw8jU0kNVUARqcEoNs0B6BPuScAKv9LlygBGJ3mAHSbKgB9UgIwOCUA0hRKAEY3KSCGKgDNFZEARPSR1sg9AdASQOkSzQEY3VYBMZQANFfE7yaij7RG7gmAKgDSJaoAjE4JQLdFVACUAGRkp4AYSgCkKSL6YsQ90VRbB8TQHIDmikjOIvpIa+SeAOwREENHAUtTRPTFiHuiqVQB6DZVAPqkBGBwqgBIUzwYEGOamW0WEKeJlAB0m+YA9Cn3BGB6QAwlANII5X4Ujw4YxoDdA5rTREoAuk0VgD5lmwCUuwDuFhBKCYA0SUR/7NwwQHnIUcQSL80BaK6I5GySmWWzFDDbBADYhcH3fV4NPBzQFpEoSgBGFvVlpwpAc0XtyJrNRMCcE4CIh9xD7r4mII5IFCUAI4tKAFQBaCh3d2KSgGyGAZQADEblf2maiD4ZMTemaSIe6k+ULxlpLk0E7ENW+x5vIOIhpyWA0jRaCjiyiIf6RDP7ekAcqc7kgBhKADIQ8ZC7JyCGSKS7A2J0MQGIGNfdFHh7QBxpNs0ByEBEBSDiYSsSKaJPdnEZYDZfdTKwbPpKzglAxFeOEgBpmog+uZmZde1MgGwe6jKwbPpKzgmAKgDSRQ8SMxO6a8MA2TzUZWDZ9JUsEwAz2xrYJiCU5gBIo5Sz1CP6ZddWAmTzUJeBZdNXskwAiPm6WQnMD4gjEk0TAYfLZmKXDCybvpJrAhDxdXOfNgGShlICMFw2X3UysGz6Sq4JgCYASpcpARgum4e6DCybvpJrAhBRAdD4vzSVEoDhsnmoy8Cy6Su5JgCqAEiXRfTNrk0CzGZcVwaWTV/JNQHQEkDpsnkBMaaZ2WYBcZoim686GVg2fSXXBEAVAOmy+ymOqh5Ul4YBIpb9Sh6y6SvZJQBmtgmwa0AoJQDSSO6+iiIJGFSXEoCu7Wwo1cmmr2SXAAC7Mfi/twP3BrRFpCqaCFgqhzKyKevKwLbq2PDXRuWYAEQ81B5y9ycC4ohURQnAOtl80UmYLPpMjgmAJgBKDrQSYJ0sHuYSKos+s0nqBiSgCYCSA1UA1pkWEONh4PMBcaR67wd2GDBGRJ9pvBwTAFUAJAdKANaJ+Jq71d0/ExBHKmZmJzF4ApBFBSDHIYCIh5p2AZSmi0gAdjczC4iTWsTDfEFADKlHxO9KCUBHaQhAchCRpE6mGw/CiH8HnfzZHhG/qy70+zHlmABoCEA6z92XAw8FhOrCMIAqAHlRBaBHWSUAZrY9MCUglBIAaYN5ATG6sBJAFYC8qALQo6wSAGIeZkvc/bGAOCJV00TAgioAeVEFoEe5JQD7BsTQ17+0RURfjbhnUlMFIC+qAPQotwRgRkAMJQDSFhF9NeKeSU0VgLyoAtAjJQD9uyMghkgdIvpqqxMAM9sGmDRgmCfdfVFEe6R65e/qyQHDTCr7TqcpAejfrQExROoQ0Vd3NbM2H6Sjr/88qQrQAyUA/VMCIG0xj8G/hAD2C4iRihKAPCkB6EE2CYCZ7QpsGRBKCYC0gruvBu4MCNXmYQBNAMyTJgL2IJsEgJiH2BNoG2Bpl1sCYuSeAKgC0D6qAPRACUB/bnN3D4gjUpeIilXuCYAqAO2jCkAPlAD0R+V/aRslAINTBaB9VAHogRKA/igBkLaJ6LP7tfhUQFUA8qQKQA9ySgD2D4ihBEDaJqLPTgF2C4iTgioAeVIFoAdZJABmNpmYcwCUAEiruPsDwJKAUBEJdAo7B8RQBaB9In5nEX2n0bJIACj2M4/4d1UCIG2U8zyAQQ8zWgloF8D2WUTxuxtEFw7CGlUuCUDEw+tRd384II5I3bJMAMxsBwY//vsBrfxpn/J39sCAYaaUfaizlAD0Tl//0lZZJgDEDPup/N9eEb+7iD7UWEoAeqcEQNoq1wQgooSrCYDtFfG76/QwgBKA3kXsqCaSQkTf3d3MNg+IU6eIh7cqAO0V8btTAtABqgBIzm4LiGG071CgiPKtKgDtFfG70xBAm5nZjsDUgFBKAKSV3H0xg0+IgvYNA6gCkDdVAMbQ+QSAmIeWE/MVJZJKjvMAVAHImyoAY1AC0Jv73X1ZQByRVHJMAFQByJsqAGNQAtAblf+l7bJKAMoJi9oGOG8h2wG3cPJrz5QA9EYJgLRdyKFAATHqsntAjFXAwoA4ksZCit/hoCL6UiMpAeiNEgBpu4g+vLWZ7RIQpw4RY7faBbDFgnYDhA7PA+h0AmBmmwJ7BYRSAiBtdwewOiBOW4YBNP4voHkAo+p0AkDx8t8kII4SAGk1d38SuDsgVFsSAK0AENBKgFF1PQGIeFitBO4KiCOSWsSOgG1JALQNsIC2Ax6VEoCx3eHuERNJRFLLKQHQQUACOhBoVEoAxnZdQAyRJojoy21JACK+2u4IiCFpRfwOVQFoKSUAIutE9OU9zWxSQJzKmNkEYLeAUJr7034Rv8Pdyj7VOZ38lxoiIgG4NiCGSBPcAKwZMMZEYJ+AtlRpZyAiSVEC0H4Rv8NJFH2qczqbAJjZTsC0gFCqAEgnlNtZ3xkQ6qCAGFWKKNk+UB6iJC0WeBBWJ4cBOpsAAIcGxFiKVgBIt0QktBH3VpUiJm3p6787In6XnZwI2OUE4JCAGDdoJzDpmBwSgIivNSUA3RHxu1QFoGUiHlIa/5euuT4gRtMTgL0DYigB6I6I32VEn2ocJQCj0/i/dE1En965nGPTVDr/Q4bK6iTMfnQyASiPb4w4uUwJgHTNbcATAXGaXAXYPyCGEoDuiPhdRvSpxulkAkAxS3liQBwlANIp7r4auCkgVCMTADPbhsGXbK1GmwB1ScRBWDuXfatTupoAREwAnO/uiwLiiDRNlycCRnyp3V0eniQdEHgQVueqAF1NADT+L7JxXU4AIsZqI85MkGbJ6RyMnikB2DglANJVEX17PzObEhAnmsb/ZSSaBzCCziUAZmbAwQGhlABIV0X07QnE3GfRlADISJQAjKBzCQDFPuVbBsTRHgDSSe4+H3gkIFQThwGUAMhIlACMoIsJQMQEwFXEzJQWaarOzQMws4loEyAZWchmQGUf64wuJgARD6Xb3H1FQByRpupcAgDsxeCnAC4H7g1oizTLvRS/20FMouhjnaEEYGQq/0vXRSQABzXsnPSIEu3tOv+je8rf6e0BoTo1DNCkmzeKVgCIjC2ij08hZsfNKNoCWEajLYE30KkEwMx2AJ4WEEoJgHTd9UDEl26ThgEivs60B0B3RfxuVQFosIgJgKAEQDrO3ZcQszta1xIAVQC6SysBNtC1BCDiYbQEmBcQR6TpunY0sBIAGY0SgA0oARjuek0Ckkx0ZiWAmW0PbB8QSglAd0X8brcv+1onKAEYTuV/yUVEX9/JzAY9fS9CxJfZIzoArLvK323EBlidqQJ0JgEws8nE/GK0BFByEdXXm1AFUPlfeqFhgCE6kwAAzwQ2CYhzZUAMkTa4GVgWEEcJgLSFEoAhupQARDyEVgHXBMQRaTx3Xw3MDQjVhARAewBIL7QXwBBKANZ3g7sPul2kSJtcERCjCQmAKgDSC1UAhlACsL6Ih6FIm0T0+X3NbIuAOONiZlF7tGsToO6L+B3vVfa51utEAmBmRszZ5EoAJDcRfX4CcFBAnPE6ABj0lLaoveKl2W5n8B0wJ1L0udbrRAIA7AlsExDn8oAYIm1yC8XmV4NKOQzwrIAY97l7xIRIabDyd3xfQKiIPpdcVxKAiIfPk2gPAMlMuelVxMqXlAlAxLU1/p+PiN91E+a9DEwJwDrXuvuTAXFE2qbtEwEjvsaUAOQj4netCkCDaAKgyPhF9P2DzGzQcfjxijgETBMA8xHxu446eC6priQAMwNiKAGQXEX0/SkUm3HVysyeTsz8n6sDYkg7RPyutzGziJUnSbU+ATCzPYGIvciVAEiW3P0O4NGAUM8LiNGviFKsE7MhkrTDXAZfCQAdmAfQ+gSAmIfOcuCGgDgibRUxETBFAhAyAdDdFwfEkRYof9eaCIgSgLWudvdVAXFE2ipiCWxbKwA6/yM/Eb/z1k8EVAJQUPlfchdxD+xnZtsFxOlHxFeYEoD8tH3pa4hWJwBmtjkxszGVAEjuou6B5wbFGZOZ7QDsFhBK939+In7nu5V9sLVanQAAhwGbBsTRA0Cy5u73AAsDQtU5DBDxBbYGTQDM0VyK3/2gWl0FaHsCEPGwWUpxLrpI7iIS4doqAARtAOTuEVshS4uUv/PsNwRqewIQ8bCZ6+4RmaBI20UkAEeYWV3PFY3/yyCynwfQ9gQgogKgA4BEChH3wlbUtyGQdgCVQbR9C+yBtTYB0AZAIuGi7oXK5wGUE4BnBIRSBSBfEb/7GWVfbKXWJgDEPWSUAIgA7r4AmB8Qqo55AAdRnMs+CE0AzFvERMCJFH2xlXJPAB4Hbg+II9IVEQlxHSsBIiZf3eLuSwPiSAuVv/uIg4FaOxEw9wTgyvI8dBEpRCQAM8xs24A4o9EEQImQ9UTAViYA5ZiLJgCJxIu4J4zqhwEivrp0/0tEH1AFoGaHAZsExNEKAJH1NX5HwHKZYcS4qyoAEtEHDqpx6WuoVjaauDHGS4PiiHSCuy8kZl5MlfMAZgBTBoyhCYACMRMBpxCzIqV2OScA89z9/oA4Il1zcUCMKjcEiii53uzufwqIIy1W9oGInWBbOQyQcwLw+4AYIl0UcW9sDRwQEGckOgFUIrVl5Uu41iUAZvZ0YKeAUEoAREYWdW9U9VA8MiCGxv9lrYi+ENEna9e6BIC4h0pEmVOki24GFgXECU8AzGwL4OCAUEoAZK2IvnBw2TdbJdcE4HHghoA4Ip1T7o1xSUCoKioARzD4DoCr0QRAWWcuRZ8YxESKvtkquSYAl+gEQJFRRVTI9jezqQFxhnp+QIyb3X1ZQBzpgLIvREwEjOibtWpVAmBmU4BDAkJp/F9kdBH3iBH/VRTxkNUEQNlQRJ9QAlCxqA2ANP4vMrorgBUBccKGAczMguJp/F82FNEnnlf20dZoWwIQcfOvBP4YEEeks9x9BTFfRZE7Ah4ARAwpqAIgG4roE1OpbulrJXJMAK5y9+UBcUS6LmpDoKivoogS62rgmoA40i3XMPhEQGjZMECOCYDG/0V6E3GvRH4VRTxcb9IEQNlQ2SduCgilBKAKZrYXsGNAKCUAIr25BIg4LjtqHkDEZisq/8vGRPSNVm0I1JoEgLiHiBIAkR64+yJilkcNPA/AzHYA9gtoiyYAysZE9I39yr7aCm1KACJKK7e7+4MBcURyEZEwR9y7UR8AqgDIxkT1jdacC9CmBGBWQAwt/xPpT8Q98wwzG3T4LiKJWIUmAMrGXUPRRwbVmnkArUgAzGxn4BkBoVT+F+lP1D0ze8B/PuKheqNWAMnGlH3jxoBQSgCCDfrwWEsVAJE+uPvtQMSw2bHj/QfNbFPg8IA2XB4QQ7otoo8cXvbZxmtLAjDuh8cQi4BbAuKI5CaiCjDIPXwosHlAGy4IiCHdFtFHNqfos42XUwLw+/KUMxHpT0TlbB8z232c/2xUSfX8oDjSXVF9pBXDAI1PAMxsOrBXQCiN/4uMT9S9M95EPmJt9e3ufl9AHOmwso/cHhCqFfsBND4BIObrH5QAiIzXXCBi97zx3ssRX1P6+pdeRfQVVQCCRCQAUQebiGTH3aMO0Or7XjazPYCnBVx7TkAMycOcgBhPK/tuo+WSAFxRnm4mIuMTUUHbzcz27fOf0fi/1C2beQCNTgDMbAawa0AoLf8TGUzUPdRvQn9MwDVvcfcFAXEkA2VfiVgxFtF3K9XoBIC48f85QXFEcnUxMbuk9XtPHxdwTX39S78i+kxE361UDgnASuCigDgi2XL3pcTMA5htZtbL31guG+x3yGAkSgCkXxF9Zt8Blr7WorEJQPmQmBUQ6jJ3/1NAHJHc/S4gxjTgwB7/XlUAJZU5QXGi+nAlGpsAAAcDEccqRjy0RCTuXur1oRhRQr3R3R8KiCMZKftMxLkAjR4GaHICEJU5KQEQiXEp9e4HEPEMUPlfxiui76gCME4Rf3DLgMsC4ohkz92fJGY1wDFmNnG0v6FcARSx/l8JgIxXRN95WtmXG6mRCUD5cHhBQKiLyoeWiMSIqKhtAzx7jL8nonTq6AAgGb8LKPrQoBo7DNDIBAA4DNg6IM55ATFEZJ265gFEPDSvd/eHA+JIhsq+c31AKCUAfdL4v0gzzQUeDYiz0XvczCYQswJI5X8ZVEQfmlX26cZpZKOISQAepXhYiUgQd19DzEPxKDPbdCP/36HAdgHXUAIgg4roQ9tR9OnGaVwCYGaTiDlKcU75sBKRWBGVtSnAczfy/0WUTNcAFwbEkbxdSNGXBtXIYYDGJQDA84DNA+Ko/C9Sjai5NRur9EVUAK9190cC4kjGyj50bUCoRi4HbGICEPUHpQmAIhVw95uB+wNCDbvXy2GBowNiq/wvUSL60tGjDHkl08QEYHZAjAXuflNAHBEZWUSC/Vwz27Da91xgi4DYSgAkSkRf2oKND3kl06gEwMxGGxfsh77+RaoVMcQ20nyfiAqgxv8lUtQ8gMYNAzQqAQCOAiLKJBr/F6lWVfsBREyWmuvujwfEEaHsSxEryho3EbBpCYDG/0VawN3vA24NCPXUPW9mUWVSlf8lWkSfem7ZxxujiwnAHe5+d0AcERldRBXgMDNbu+tnVAVQCYBEi+hTURNcwzQmATCzXvYH74XK/yL1iLjXhp77EVEiXQ1cFBBHZKiLKPrWoBo1D6AxCQBwDMXDYFAq/4vU43xiJ0dFJABXuPuSgDgiTyn71BUBoRo1D6BJCcDxATEcJQAitSg3SbkmINTxZha1XeqcgBgiI5kTEOPQsq83QpMSgBMDYlzv7gsD4ohIbyKGAQ4CTiHmeaTxf6lKRN+aQIOGARqRAJjZdGC/gFAa/xepV9Q999GAGCuBiwPiiIzkYoo+NqiIj90QjUgAiPsDUQIgUq+LiHkoRpRFL3f3PwXEERmm7FuXB4R6UUCMEE1JAF4YEGMV2v1LpFblQ/EPqdtRmpO6AdJ5cwJi7GZmzwyIM7DkCYCZTSRmZuRl7r44II6I9Oec1A0oafxfqhbVxxpRBUieAABHAFMD4pwdEENE+teEe285Gv+X6l1M0dcG1Yh5AE1IACLK/9CcrxCR3FwJLErchjnu/kTiNkjHlX1sTkCoF5SH3yXVhAQgIhN6hJjJGSLSJ3dfA5ybuBlNqEJIHiL62mRgVkCcgSRNAMxsW+DwgFDnlg8hEUkj9Qv4N4mvL/mI6mvJhwFSVwCOI2b7X5X/RdJKeQ/Oc/dbEl5fMlL2tXkBoZJPBEydAERlQKm/PkSy5u73Azckurzuf6lbRJ/bz8yeHhBn3FInABETAG8qzyYXkbRSvYhV/pe6dWIYIFkCYGb7A3sEhFL2L9IMKYYBVqIdQKV+vyNmB8ykwwApKwAq/4t0y4VA3UvxLtXxv1K3ss9dGhDqWDPbNCDOuKRMACLK/yuACwLiiMiA3H05xdkAdVL5X1KJ6HtbAUcGxBmXJAmAmUWtgbyofOiISDPUXZFTAiCptH4eQKoKwJFAxC5IKv+LNEud9+SDwNU1Xk9kqKsp+uCgks0DSJUARGU8Wv8v0iDufj0wv6bLnePuXtO1RNZT9r2Id9AhZrZzQJy+tTkBWODu1wbEEZFYdSXmKv9LahF90Ig7E6cvtScAZrYTcHBAqN8GxBCReHUMA6xBFUBJ7xyKvjioJMMAKSoAL6TIeAal8X+RZjqXmIfiaK5y94crvobIqMo+eFVAqBeaWe3v41QJwKAcVQBEGinwoTgalf+lKSL64vbAYQFx+lJrAmBmUWMdc919YUAcEalG1eV5JQDSFK1dDlh3BeBQYMeAOCr/izRblffo48AfKowv0o8/UPTJQdU+D6DuBCBqpqMSAJFmuxSoaovec919dUWxRfpS9sVzA0IdYWZTA+L0rO4EIKLEsRS4JCCOiFTE3VcC51cUXuV/aZqIPjkROD4gTs9qSwDMbAti9jw+v3y4iEizVVWpUwVQmiaqT9Y6DFBnBWAWMCkgjtb+irRDFS/qG9393griioxb2SdvDAhV60TAOhMAHf8rkhF3vwO4Mzisyv/SVBF9czczOzAgTk/qTAAiJgDe5e63BcQRkXpEJ+xKAKSpWrccsJYEwMymAzMCQqn8L9IukQnAcuCiwHgikS6i6KODqm0eQF0VAC3/E8nT+cCqoFhz3P2JoFgiocq+OScg1NFmNiUgzpjqSgAiShqrgPMC4ohITdx9McWeABFU/pemi+ijkykmzVeu8gTAzCYCxwWEuszdI3ZbEpF6RQ3dXR8UR6QqUUlqLcMAdVQAZgIRuxup/C/STlH37tFBcUQq4e63AvMCQnUmAYia0agJgCLtdCWwKCBO7YeliIxDRBVgXzPbKyDOqNqSADwCXB4QR0Rq5u5riNkrfWbde6WLjENrlgNWmgCUN+vhAaHOLR8iItJOEcMAUfOJRKp0HhCxXX3lwwBVVwCOp7hpB6Xyv0i7Rd3DGgaQRnP3JcQcWHesmW0aEGejqk4AtP5fRHD3+4EbAkJFPVNEqhQxDLAlMQfobVTVCUBEtn6Tu98XEEdE0opI5KebWcSuoiJVasXpgJUlAGa2P7BHQCh9/Yt0Q9S9rGEAabqrgQcD4rQzAUDlfxFZ30VAxFa+GgaQRnN3J+bddYiZ7RIQZ0RVJgARWfoK4IKAOCKSmLsvBy4MCDXLzCYFxBGpUtRywMoS3koSgPLmnBUQ6qLyoSEi3RCxGmAL4KiAOCJV+i0QsXy9smGAqioARwERpxmp/C/SLVH3tIYBpNHc/WGKXTAHdYKZVfKurioB0Pa/IjKMu18PzA8IpYmA0gYRwwDbA4cFxBmmqgQgIjtf4O7XBsQRkWaJSOwPMbOdAuKIVKnRywHDE4DypjwkINRvA2KISPNEPBQNOCEgjkiV/gA8FhCnHQkAxU1pAXE0/i/STecSMzlKwwDSaO6+mriDsLYNiLOeKhKAiJvSUQVApJPKyVFXBYQ6wcwiPjZEqhQxD2Aixdk6oUITgPJmjCjLzXX3hQFxRKSZIip8UcONIlVq7DyA6ArAIRQ35aBU/hfpNp0OKFkoz7KJOAgrvK9HJwBRDVQCINJtlwJLAuJoPwBpg4hhgKeZ2YEBcZ7SxARgKTFnKYtIQ7n7SuC8gFBHmdkWAXFEqtTIYYCwBKC8CSPOLj6/fDiISLdFDANEbTsuUqULgWUBcZqZAFDchBEHdGj3P5E8aFtgyYK7rwDmBIQKrXhFJgA6/ldEeubudwB3BITSREBpg4h322QCK16RCUDETXiXu98WEEdE2iGi4jfDzKYHxBGpUtTxwGHDACEJQHnzzQgIpfK/SF40DCBZcPdbgbsCQjUrAUDlfxEZn/OAVQFxNAwgbRBRBdjHzPYKiBOWAETcfKuIWRYkIi3h7kso9gQY1HFmNjEgjkiVGrUccOAEoLzpjgtoy2Xu/nhAHBFpl4iH4lRgZkAckSqdB0Qsc29GAkBx000NiKPyv0ietC2wZKGseP0+INRsMxt42X1EAhB102kCoEiergQWBcRRAiBtEPGxuyUBG+9FJAAREwAfAS4PiCMiLePua4g5/vvwKs5MFwnWmOWAAyUAZhY17nZu+RAQkTxFVACj5iOJVOka4IGAOGkTAIqbLWLmrcr/InnTPADJgrs7McMAB5vZLoMEGDQB0PG/IjIwd78fuD4glDYEkjaIeucN9A5uQgJwk7vfFxBHRNotogq5jv+PAAAG80lEQVSwh5ntHxBHpErnABHD3gMNA4w7ATCzGcAeg1y8pK9/EYGGfBWJVM3dFwFXBIQ6wczG/R4fpAKg8r+IRLoQeCIgjoYBpA0i3n3bAYeP9x8eJAGIuMlWABcExBGRlnP3JyiSgEHNMrPJAXFEqpR8OeC4EoByB6JZ473oEBe5+/KAOCLSDRFfRVMI2CRFpGKXAY8FxKk3AQCOArYY70WHUPlfRIbSckDJgruvBs4NCDXuDbDGmwBEjbFp/b+IPMXdrwfuDwilBEDaIGIYYCJwwnj+wfEmABE31wJ3vzYgjoh0S8SHwcFmtnNAHJEqJT0euO8EwMx2Ag4Zz8U2ELH3t4h0T0QCYIzzq0ikLuUeOBEbYI3ro3w8FYATKG6uQWn8X0RG8ltiNknRMIC0QcS7cFczO6jff2g8CUDETeWoAiAiIyg3SbkyINQJZhbxsSJSpWTLAftKAMqbKaKsNtfdFwbEEZFuihgG2BE4NCCOSJUuApYFxKk2AaAY+9+p34uMQOV/ERmNtgWWLLj7CmBOQKijzKyv5fn9JgDa/ldE6nApsCQgjrYFljaIGAaYBMzu5x/oNwGIuJmWApcExBGRjnL3VcB5AaGO7PerSCSBJPMAek4AypvoqL6bM9z57r4yII6IdFtEpbDvryKRurn7bcCdAaH6qtL3UwE4huJmGpR2/xORXkQ9KzQMIG0QkfDuY2Z79/o395MAaPxfRGrj7ncAdwSE0kRAaYPahwHqTgDuKksdIiK9iPhg2M/M9gyII1Kl84CI4fHYBMDM9gBmjLs566j8LyL90DCAZMHdlwK/Dwg128x6Gq7vtQKg8r+IpBD1VaRhAGmDiGGAnifs95oARGTPUct6RCQT7r6EYk+AQR1nZhMD4ohUqdZ5AGMmAOVNc/zAzYHL3P3xgDgikpeIYYBtgCMC4ohUxt2vAR4ICNVTxauXCsBMYOpgbQFU/heR8dG2wJKTiP5+sJntOtbf1EsCEDV5RhMARWQ8rgIeDoijBEDaIGoYYMz+3ksCEHHTPAJcHhBHRDLj7muAcwNCHWZm2wbEEanSb4E1AXHGnAcwagJgZlMphgAGdW55E4uIjEdEWTRqPpNIZdx9EXBFQKjjzWzUd/xYFYDjKG6aQan8LyKDiHqGaBhA2iBiGGA7xviAHysBiLpZlACIyLi5+3zg+oBQ2hBI2qCW5YBjJQARN8tN7n5vQBwRyVvEMMDuZnZAQByRKv0ReDQgzqgf8RtNAMxsBjA9oAFa/iciEbQtsGTB3VcTM/F1ppltt7H/c7QKgLb/FZEmuRBYHhBH8wCkDSKGASYAJ4z2f25MRJa8ArggII6IZM7dn6BIAgZ1jJlNDogjUqWoj+eNzgMYMQEoTxKaFXDhi9w9ImMXEYGYYYAp9HhYikgq7n4/FU983VgF4EiKE4UGpfK/iETStsCSk4hhgF3N7OCR/o+NJQBa/icijePuNwD3B4RSAiBtUOlywCoTgAXufm1AHBGRoSI+LA42s50D4ohU6WLgTwFxRnynD0sAzGwn4JCAC/42IIaIyIaihgG0HFAazd1XAHMCQh1lZsOG9UeqAJwAWMAFNf4vIlU4l5jDUjQMIG0QMQwwCTh2w/9xpAQgIit2VAEQkQqUh6VcGRDqBDOL+NgRqVJlE1/XSwDKmyEiAZjr7gsD4oiIjCTioTgNeFZAHJHKuPttwJ0BoYZNBNywAnAIsFPAhVT+F5Eq6XRAyUnEMMDeZrbP0P9hwwQgalKMEgARqdKlwOKAOJoIKG1QyXLADROAiGx4KXBJQBwRkRG5+yrg/IBQR5rZlgFxRKp0PvBkQJz13vFPJQBmFrU95vnuvjIgjojIaCIqjZsCswPiiFTG3ZcCvw8INbvc6h9YvwIwi2KpwKC0+5+I1EH7AUhOIoYBtgCOXvtfhiYAOv5XRFrD3e8E7ggIpYmA0gbhywHN3Yv/YHYTsP+Age8DDhowhohIr74InBYQ5yCK55dIk91KsXx1ENe5+8FQJgBmtgdw98BNExERkabbzd3vXzsEoBKYiIhIHk6EdXMANAlGREQkDydCcejPRGAhsG3S5oiIiEgdHgWmTQAORy9/ERGRXGwLzJyAxv9FRERyc+IEYGbqVoiIiEitjpwAbJ+6FSIiIlKrvZUAiIiI5GenCcDmqVshIiIitbpxAjq8R0REJDdXTgB+mLoVIiIiUqvLDdiE4hyAXRM3RkRERKp3A/CcCe6+CnglsDxxg0RERKRaq4BT3X3FBAB3/yPwZsCTNktERESqsgp4j7tfBesOA8Ldf0KxK+DliRomIiIi1bgBOMLdv7r2fzD34R/9ZnYScDqwH7AnxTwBERERaYcVwHXAlRQf9t939xVD/4b/HxbgWxxJvdHDAAAAAElFTkSuQmCC;" parent="8uBbU_594jC50RYXib-e-39" vertex="1">
          <mxGeometry x="7" y="5.5" width="21" height="21" as="geometry" />
        </mxCell>
        <mxCell id="8uBbU_594jC50RYXib-e-43" value="" style="rounded=1;whiteSpace=wrap;html=1;fillColor=#F6F7FB;strokeColor=#F6F7FB;" parent="8uBbU_594jC50RYXib-e-39" vertex="1">
          <mxGeometry x="9" y="4" width="17" height="6" as="geometry" />
        </mxCell>
        <mxCell id="8uBbU_594jC50RYXib-e-44" value="" style="rounded=0;whiteSpace=wrap;html=1;fillColor=#F6F7FB;strokeColor=#f6f7fb;strokeWidth=1;" parent="8uBbU_594jC50RYXib-e-39" vertex="1">
          <mxGeometry x="20" y="6.5" width="8" height="6.5" as="geometry" />
        </mxCell>
        <mxCell id="8uBbU_594jC50RYXib-e-45" value="" style="shape=image;verticalLabelPosition=bottom;labelBackgroundColor=default;verticalAlign=top;aspect=fixed;imageAspect=0;image=data:image/png,iVBORw0KGgoAAAANSUhEUgAAAgAAAAIACAYAAAD0eNT6AAAABHNCSVQICAgIfAhkiAAAAAlwSFlzAAAOxAAADsQBlSsOGwAAABl0RVh0U29mdHdhcmUAd3d3Lmlua3NjYXBlLm9yZ5vuPBoAACAASURBVHic7N13nF9Fucfxz+6mkUJIoacBIQkt1NBLAGmiKEURRUSuHQEB5V4QBAWRC3oFG4g0FZViQalK72BABKVDCC2UJJCebMru/ePZNcuy2f39zjNnTvu+X695gfdyfvvMnD5n5pkGROJqAEYAo9r+uW7bvw8HhnQoqwKrtG3TBxgALAIWA8uBuW3/v7nALOAtYEZbeaOtPA9MA5alWyURKak+wDhgfIeyPnY9GgwMavt3gAXAPGAOMB+YCjwLPNfhn0sixt6jhqwDkFJbB9ga2BzYmBUn0IDuNgpsKfYQ8Dx2Av4LmAI8hT1IiIi06wVMAvYAdgd2ZMWLiNci4H7gTuAO4BH0ciIl0QfYGfgmcD0wHWjNcZkP3Af8EPgE1uMgItXTCEwGLsPe3mNdg2YDlwC7opdxKaAtgFOA27Dur6xv6p6yCDgf69YTkfJbFzgT6yHM+vrzEvAdrNdUJJf6Ah8Gfg68SvYnTRrlaWB0qAYTkdxZH7uGLSb7603nshi4EFgvtdqL1KEJ2BvrHnuX7E+QGOUJoH+IxhOR3BgN/BobF5T1NaanshT4JTAylZYQ6cEE4DzgTbI/GbIop/mbUERyoA9wMsX8TDkfOAnoHbxVRDrpCxwB3EP2B37W5W2s90NEimt37LNe1tcTb3kS2C1w24gAsDr2xlvVt/2VlW08jSoimekFnAu0kP11JFRpAc5uq5uIW/tgmIVkf3DnsRycvGlFJCOjsPn2WV8/0ir3YknURBLZABvUt4TsD+Y8Fz0AiBTLXsBMsr92pF1mAHsGajOpiJHYjb8Io2DzULZI1swikoHDgGayv27EKs3AoUFaTkptAPDfWJ7qrA/aopRXsAxhIpJ/R2OpvbO+bsQuLcAJAdpPSqgR+AIa3JeknJigvUUkvtPJ/nqRddG0ZXmPLYGHyP7ALGJ5CJs7LCL5dizZXy/yUr5ab+NpAYLyWRXLKf1V8j2P/RXgBeA1LK3w61hPxbtt5R0sCQbYYMUF2Kpc/bBpMIPa/rk6tpTwmm1lDWAssCGW+aveKTOPAB/EBtmISH59EsvsF+NT3TwsP8oT2NK+z2DXiHnYtQnsU+sg7Bo0AVv5dCKwS9v/PW0tWJtcHeFvSQ7tST4WtuhY2k+cHwKfxpYHHphS/Tvrja3l/RHsoehm7KTtKs53sK7EvpFiG4otkTyCfD+oieTR3qQ/4G8qdt3YHt/c+17ADtjCQy+lHHMzmh1QOQOAn5CPpBezgD8Bx2FPv3m8ua2HPRQcB3wRWwo0xo1/FeBrwL94f5tdghYAEanFKOycSeP6tRx7g05rid6Gtt++mvQGLc5AeQIqYxLWlZ7lTf8x4CzsSVkj57s2Hkvn2V07LsYGH+rTnEjXegMPkM6N/wrsPI1lArbgTxoPAveijIGl1gAcT3bzXh/DFqkYnXZFS2AENtah1ra9ERvbICLvdS7hr2VTsBeprGyLjT0KXa+zY1ZC4hkG/IX4N/03gf/FnlyldjdTf1u/hhb/EOloD8J+5mzG5tDn4TNlE9b7FzI763J0DSmdidjglFg3/RbgVuAgtCRlEjuRvO2XAsfED1kkd/pgI+9DXdemYm/eebMdYQcKPomu26VxEPGy+S3G0gZvFqVm5fVD/Pvicmz6o0hVnUK4a9v92CycvBpG2HEOJ8UNX0JrwKaoxRjlvxA4H1g7Ss3K71bC7JeHsDwHIlUzBptrH+I8uhHoHzX6ZPpjsYao8zxsHRgpoN7YSNG0b/yLsbfVteJUqzJCZmN8kbijlEXy4ErCnD83UKzu8N6Eewi4Im7oEsIg4K+ke+NvAX6HPWVLeNcRdn/NBHaOWgOR7GwALMN/3txPMd78O+sPPIi//ktQnpFCWQv4B+ne/B/GBp1Ier5O+P22CPhwzEqIZORi/OfLVPL9zb8nwwiT4fXCyHFLQmsB/ya9G/+7WBa8PEx/Kbu1sHEVoffhMiy1skhZjcCf52QJloa36Cbhb4vFwLqxA5f6jAKeJ72b/29RkpnYTiedfbkMODJeNUSi+i7+c+T46FGn50T87XFm9KilZmNIb7GIt4GDo9VEOmoCfk86+7UFOCpeVUSiaARexndu/J1ypSZvwp8xcBpKNZ5La5NeTv+/YEtUSnYagXNIZyrnMmwZUJGy2AP/ObFN9KjTNwn/2gG7RY9aujWM968QF6I0Y6vP6YkvP/bDemNC7+ulWKIokTK4At/5cFn0iOO5Al/bXBo9YlmpQVhXVegbwkuU8wm4DNYB7iadBz6tBS5F1xuYS/LzYBkwLnrU8YzHNzVyNlopMBd6kWyhmJ7K7cDwiPWQ+vUGfkL4fT8bpW+WYvOsn9GK5TUpu6vwtVEZZkYU3kWEvwFcgJ7uiuS/sOk5IY+BV7EpVCJFdBq+478KibJ2xddGp8QPWTr6BmEv+suAo6PWQELZFXiHsMfD48DAmJUQCeQOkh/3L1CNMU8N+FaFvS1+yNLuw/hHcnYsC4CPRK2BhLYxYbJ9dSzXUo2LoZRHPyzTZdJj/ozoEWfnTJK300Kgb/yQZRz2nTbURf5dYPuoNZC0rE342SCnRq2BiM9EfMf7tvFDzsz2+Npq0/ghV9tAwqb4nQFsGbUGkrZh+JN9dCzLgf2j1kAkuY+T/FifTbXSm/cC5pC8vQ6JH3K1XUO4C/sbwCZxw5dIVgMeINyxMgutBy7F4BkAeH0G8WbtBpK31zfLlCYx774AfCzQb80E9gKeDPR7ki+zgX2BKYF+byg2HqBIa6FLNY13bPvPYFEUx+OObcucKyFXJmAD9UK8zb0LbBU3fMnIUOAJwvUEfC9u+CJ1u4/kx/fhGcSbtSNI3l73ZhBv5fQFHiPMBXwhsGPc8CVjaxJudcjlKA+45JvngbdKAwDbbUfy9vL0HkiNziHcxVur+VXT+sBbhDmOXsLST4vk0TSSH9uj44ebufVI3l5TM4i3UrYElhDmwv21yLFLvkwC5hPmWLowcuwitZpF8uN6aAbxZm04ydtrRgbxVkYfwn2/vShy7JJPhxBmOeEWtGiQ5JMnLXafDOLNWl+St9fiDOKtjDMIc/O/j2oe2NK17xLmuHoOy7omkifN6AGgHn1I3l7NGcRbCWMJs8DLq8BakWOXfGsEbiTMQ8AZcUMX6dFMkh/PwzKIN2v6BJBDnuQM7WUp1VjVSuo3hDDrBixGc4ElX14i+fE8OoN4s6ZBgDlzAGHezpTDXbqzI/aQ6D3ObogduEg3PGthTMog3qxpGmCO9MGWo/RelO/AunpFunMKYR42PxA7cJGVuJ/kx3EVEwF9muTtda9uMmF9GdjA+Rtzgc9gI7VFunMONkjU6wdUaxEVya+XHNt60ggXlafOL+kBIJxVCdNtfwI2+E+kJy3AUViGSI+JwJHuaET8nnVsu3mwKIrDU2dPW0snZ+Hvir0ZaIgduBTecfiPvWlUcxqV5ItnOeB3qVZPVi9s4bCk7aXlgANZHX+WtgXAmMhxSzk0Ag/jfwj4cuzARTrZHN8xXKWBgJ4BgK3AZvFDLqez8V98vxk9aimTrYFl+I7BV7DMYiJZ6Ycvh8rp8UPOzHdI3k6L0LkexBBgDr4L77NoZ4jfT1AvgBTfnSQ/fp+nGp9RG4AXSd5Ot8cPuZzOwH/R/VDsoKWUhuBbTKX9Alql76iSP6fhO4Z3ih9ydDvjayP1OAewCr7Ula3YnH+RUI7H/0B6UPSoRVbw3tx+Ez/k6H6Lr412iB9y+XwO305Yjn27FQmlL76uwVbggehRi6zQB8uHkvT4XYatx1JW4/CN95mNzSAQhwb8y/3+LnrUUgWfwt8LsF30qEVWuALf8Xtp9IjjuRxf21wWP+Ty2QP/2/8m0aOWKmgCnkEXCSmuPfEdv8uAraJHnb5t8M/2mRw76DK6Bt9OuCZ+yFIhR+A7PhdigwpFstCITUv1HMNTKNeaKo3AQ/jaZBrlapNMDMM3V7WFaqatlHh64V+Y6qvRoxZZIUR+lWOjR52eEAN8z4oedQkdg28n3Bo/ZKkg73H6j/ghi/zHSKAZ3zG8mHIMtJ5EmLYYETvwMnoM3474YPyQpYIGYvnRPcfqxtGjFlnhEvxvvS9Q7M9ZQ4Gp+NvhotiBl9Em+HbCM1QjU5Xkw7n4jld1GUqWxuIf9NYK3IPlbSmaVbAlv731Xwqs1/nHdSOq37eBbzm2Px44P1AsIj3ZAF961KnYRbg1WEQrDADWAdbAFtRaCxjcVga1lf5t/+0qWJ74du2roIHNGV+E9XZ0LLOwpbWnYxdAKabfAJ8M8Dt/AQ7GHiiKoBfwB+CAAL/1S7pY8lsPAPV7Ctgo4bZLgHWx7IEisdyOTVtNahLwSMJth2GfETbCEpiM6VCGOWKqRwvwFvYw8Cr2QPQs8HTbP2dHikOSWQ94kjBv8H8GDsMeGPNsFeAqwtz8F2Dn4CsBfqvSNsPXDaOpf5KFw/Adt2fW8DcasBv8J4DzsIeOGc6/G6u8AfwVG3V+MDC6hvpKXN8k3P6+l3yPCRhCmG7/9nJS3PDLy7tIhQb/SRb6saLLPEl5oovfXAXYFTgFuBH/YMO8lRlt9ToJy4qo1KnZ6os/uVXH8gL5nB2wDf5U3h3Lk0DvqDUosQdIviNmoh0h2bkC34VkAyyz2n8Dt+HLg1HEMg+4ua3+E+treglkT+xzTqh9uhjLE5CHxDiNwNfwT/XrWJajrH/BDMM3GvUX8UMW+Y/98F1MFjm3L1t5GfgZ1qtXxNHlRfV9wu/Lh4AtY1aik62Bh7uIy1vOiVmJsvsEvp2xV/yQRf6jN/6lq1W6LguAq4EDee9MBQmvN/Ag4ffhMiznwAbxqsJYbNGiENMcO5f70GeroC4l+c54F+0Myd6vyP5mWfYyB5tytR+2KJOENxqb4pnG/lsKXAnsmFLsDW2/fSXp3PhbsQf9kSnFX1nPk3yHaPS/5MGhZH+DrFJ5DZtB8b4ELOK2DzatOs399zxwOjYwz/Mw14RNpT0D332kltIMfKDWwJQHoDZrY8lEkvosNghLJEurYaPb1RsVVws2LfIXwHUoKVEoh2O9WjHuY7OBu7EZMc8Az2Hn0lys1wcsgdWqWFKrccAEbMDobti5l7YWrE1+F+FvVcrHSP5E1oI9QIhkaQ3sDUSD+bItr2JTC2PcEKogxAp5ZSllWvkwVy4g+U55KoN4RdptBFyMbvx5K/OAHxF30FlZfYfs92fW5QxvI8rK3UPyHfPzDOIV2QL4E2HnTauEL8uAXwPju96NUqPjqeaxvhw4LkD7yUo0YN94ku6gw+OHLBU2ERt0WsWLYZHL8rb9NuH9u1Rq9CnSHxiYp9KMpfmWFG2IbydpBLDEMB5bOUw3/mKX9h6B0UgS+5DeFME8lZnUMdp/ZTQLoGcfx5J8JPEOMBzbYSJpWAubqvQ5ijm6fwG2Stlr2Kjqzkv6zm/775ZjI67brcaK69cgbAGVjmVNbOXNURQzU99ibIzA99BqhfUaja2kt33WgaTkfuzN/9WsA6mCn5D8Ke32DOKVaugHnIrdILN+G+mpzAX+jk3ZOhk4CNiUeCPhhwGbY7N5TgV+CzyKPXxk3TY9lRnAMWgdkXr1xtIGl6lHrAX4X4r5oF9I/YC3Sb7DfhA/ZKmA/bHVzLK+IHVV5gF3Ycf+Ydh86Lz2NDYBmwBHYDN97gMWkn0bdlWexOaTS332JOwqglmVp4DdA7eN9ODb+HbaofFDlhJbD7ie7C9GHctcVqyStz3FfzvpC+wCfAvrwcvTA0ELlmZ4jdRqX059gG9SjB6fzmU+8D9tdZCIDsaXq7kF+z4r4tWELRWal+7+p4HzsDeSot/we9IXG1j2I8Ku0+4p7wBfJL89K3k1hnRz8IcsS7FPZqPSaAhZucHYMoreg+TJ2IFLKW2KLVea9QXpYeAElLhmY+AU4HGy3yd3YDc1qc9YbOW/ZrLfh51LM5a4a/3Uai/vMQr4MDY46C+Ee8u6IGYlpHSasAFzWV6k/oXd7Kp+01+ZjbHPhM+R3T6aC3wB9QYkMQqbZfEq2d/4XwHORqv4paoXsAPwdWxRjhmkt0MnRqqTlM96wL1kcyGag2WvnJR6LctlF+z7fFZjBm7Gpj1K/RqxwYK/xB6oYp5rVwB7tMUgKVgX+Dzwe2w+bYwde3eUmkkZfQZf5smkZQpwFDAg/SqW2mrA0dgnwNj7cAY2Q0SS6w3sjA0CvQvLxxBq/ywG7gROA3YiB1M7y9ptNBI4BBvItwPxn64OwbKyidSqP/Az7AEglhbss9cPsfUuJJwGbPDgCVjGtljX2lZsCuYpaNnhEPph6ZnHt5UJWA/dIGAgtvzv4Lb/dg7WgzAfmw47FZuC+Cz2megZ7CFAUtAfy7t/G5Y1LPbTd8e3/7I+WEk6JmDf22Mdo4uxh42xMSonbIp19S4l3j5+CA0QlArYEDifeN373ZVmbGCQSK0Oxd4WYhyfi4AfAyOi1Ew62wC4nHgPArOAvaLUTCSyycCNZPu237l8O80KS6k0At8lTqrSZmweuwaJ5cP62INAjPnoS7GlckVK4QPYYghZ3+w7lxuwqVsiPRkI/JE4x+X1qKs/rzYiXmbH31DMRZFEAMs69jDZ3+i7Ko+g0dNSm9HE+d7/EDaaWfJvH+AJ0j8mHkRphKVgNsXmuGZ9k19ZeRidVFKbzYHXSfd4nAH8FxqIWjS9sHTPac9DfwH1CEkBrIal5M1jusb28kds9oFIT/Yg3YGqLVju8NVjVUhSsTa2H9O8bs0CdoxVIZF6HYFvGd60y0JshSZlb5JafIp0H2SfRhf0stkXSw+b1jEzH/hgtNqI1GAUcBPZ3+C7K39DudGldl8lvZH+y4H/Q4O7ymowcBnpXcuWAp+IVhuRbhxF3DzM9ZRlwJ+wfNEitTqB9G7+LwK7xquKZGh/YDrpXduOiFcVkfcaAlxD9jf5zmUu1hvx39jIbZF6nEx6x+aVWCpSqY5hpDdlcDnwuXhVETHbk+53rnpOgCexdJ1HYyuh9Uqv2lJyZ5DOcboA6ymTamrAepXSGE/SAnwlXlWk6r5EdiP8W4C/Y6syTUZvUxJOWm/+/0ZppsVsiy00k8Z1UQ+Ykqo+wKXEv+kvxLrQvoBNtREJ7WjSOXb/gGUPFGk3FFv4LPSxtgz4eMR6SIUMxdZYjnnjfwg4EmXqk3QdQfh1KVqwzwlK6iNd6QVcQPhrZjOaIiiBjcXWRY5x058LXAhsEaVmUnUHEn6Ft3nAQTErIYV1FLbEc8jjbyGaZSKBTATeIP0b/xvAceibvsSzPXaxDHkcvwlsHbMSUniTgXcJexy+A0yIWAcpoUnATNK98c/Eukp145eY1sNu1iGP5ReADWNWQkpjE+Blwh6PU4E1Y1ZCymMXLOVkWjf+2dhIft34JbYhwFOEPZ4fAIbHrISUzkhsxkjI4/JBlG1S6rQj6Wb2+x2wVrTaiKzQG7iDsMfzrWhhKQljCDCFsMfntWgwqtRoEjCHdG78LwH7xauKyPv8mLDH9E1Av6g1kLIbjPUohTxOT41aAymkcaSzkt9S4Dw0nU+ydQRhj+s/A32j1kCqYhBwN+GO1eXo5Uu6sRa2SEnom//raEqKZG8rwo74vw77nCCSlgGEfQh4B1g/ag2kEPoDjxD+5n8bsEbEeoh0ZTj2+SnUcX0revOXOFYl7JiAf6LxKtJBA/Bbwt74W4BzgKaI9RDpSgPWVR/q2H4QpfaVuIYTdnbAxXHDlzw7jbA3/3koFaXkx1cJd2w/BqwWN3wRANYh7CfaQ+KGL3m0H2FzoL+NzSIQyYPNgEWEObZfxS7CIlkZD8wizPH8DjAqbviSJ+sCMwh3838JO0BF8qAf8Dhhju25wOZxwxfp0i6EWzvgXvSZtpJ6AfcQ7ub/OHo7knw5nzDH9lI0fUry5dPYOKsQx/cpkWOXHDiVsDf/IXHDF+nWzoT7tHVM5NhFanEmYY7vxcDGkWOXDG2BrRkd4uB5EVg7bvgi3epLuDz/v44cu0itGoEbCXOcP4Q+BVRCX+AJwhw001FSCcmfcwlzfD+KFlGRfBuCrUAZ4ng/MXLskoFQU/7eASZGjl2kJ5OAZfiP7xnA6MixiyQxEViA/5hfiJayLrUNCDMlaikwOW7oIj1qJEw2yxZg/8ixi3j8F2Fe7G6JHbjEczPqKpLy+iJhju8LYgcuEsA1hDn+D4wduKTvAMIcHNehdaUlf4YSJqfFv9B3fymm1Qiz3sUraNXWUukNPI3/wHgaW6JSJG9+jv/4XoimQ0mx7UyYMTBnxQ5c0nM0/gNiAbo4Sj5tQZg5//q0JWVwHv5zYTEwJnLckoJ+wOv4D4jjYwcuUqO/4T++NQ9ayiJUHgzlwCiBE/EfCH9HF0fJp8mEedvZJHLcImnaAf+ngOXAVrEDl3D6A2/iOwiWYCuqieRNA2Gm/X0zduAiEfwY/7mhaYEFdiz+A+A70aMWqc1h+I/vZ4A+sQMXiWAw8Ab+c2TP2IGLXxOWp9+z45/HvieJ5E0TdvP2Xtz2jh24SESfxn+O3B89anE7BP+OPzR61CK1+QT+4/sP0aMWiasBuBP/ubJ77MDF5x58O/wxLLWqSN404F/QaiHK9S/VMBH/gMA7okctiU3A8pl7dvi+0aMWqc2B+N9ovhc9apHsXIr/nNk5etSSyA/w7ei744csUjPvyP+ZWNpUkaoYgfV6ec6bm6JHLXXrgz8n+m7RoxapzW7432ROiB61SPb+F99504Kyweaed9Gff8YPWaRmf8B3fE9DM1ukmoYA7+A7fy6MHrXU5Sp8O/jz8UMWqclo/IOZvhg9apH8OAPf+bMAGBY7aKnNAGA+yXfuu2gZSMkv79iWV9Hbv1TbYOw67zmPvhE9aqnJQfh27P/FD1mkJv3xX7iOjR61SP6cje88moamiOfSZSTfqS3AhvFDFqnJEfguWm8Cq0SPWiR/VsfXU9wK7BM9aulWI768z1PihyxSszvxXbBOjR+ySG79FN/5dFX8kKU72+DboafED1mkJhvgS2y1CFgjetQi+eVNFrcYDQbMXMfvMN5czX90bi+SliOx9L9J/RZ4O0woIqXwDPBXx/Z9gU8FikUCuIHkT3P/ziBekVo0Ai/j693aInrUIvm3L77z6h/xQ5auNAGzSb4jvxM/ZJGa7ITvInVf/JBFCqEBeAHf+TUuetTyH+2fADbC5ncmdUuAWETS8DHn9pcHiUKkfFrxnx+HhAhEfI7EN5hDyVEkjxqB10h+bM8HBkWPWqQ41sWXXVOp4zPU3gOwteM3HgGaA8QiEtpO2AUqqWuAeYFiESmj14FbHdtvjs0okAy0PwB4Bjk9FCIQkRQc7Nz+l0GiECk372eAA4NEIYnNJHkXjnae5NXzJD+up6N0pSK16I/1lCU91+6NH7K0Wx3fKM6144cs0qOx+I7rC+KHLFJYV5P8XFuKLTUskTViMwCSmoOlDxbJm/2c218bJAqRarjGsW0vYO9QgUjtGoExju1fDBSHSGieB4DXgQdCBSJSATdjs2aS8j6wSwKNwAjH9lNDBSISUD9gsmP767E85yJSm4XAbY7t98WXrlsSaARGOrZXD4Dk0Xb4lu69KVQgIhVys2PbNYHxoQKR2jTiG8SnHgDJo10c2zZjSweLSH08DwAAuwaJQmrWCAx1bP9yqEBEAvI8ANyL71umSFW9CvzLsb3nvJUEGvFNv5gTKhCRQHoBOzi29yxxKlJ1nvNHDwCReXsAFoQKRCSQLfDl778nVCAiFeQ5f0bjG5MmdWoEBji2V1ep5M22jm0XAI+FCkSkgu7DN4PGc/5KnRqB3o7t1QMgebOlY9sHsaxkIpLMu8BTju0956/UqRHo49hePQCSN54LiHKSi/h5ziM9AETUCDQ5tl8cKhCRAHoDmzi2/3uoQEQqzLNC7FbBopCaLCH5Ig6ezwcioU3EtwDQmvFDFimdzdACc4XQiCU+SapvqEBEAtjOse104K1QgYhU2NPAIsf2nvNY6tCI9QAk5Rk/IBLaHo5tNfpfJIxl+BICTQ4Uh/SgEd93/MGhAhFxGgIc4NheDwAi4fzDse1hqHc5ikZgtmP7YaECEXE6Fujv2H5KqEBEhEcc264BfDZUINK9e0g+WGOfDOIV6Wwcthxp0uO4BQ0AFAlpU3wDAWehwYCpa8QaOintIMnaasCf8S3/+080AFAkpCeB1x3bDwX+hO+8lh40AjMd248OFYhIAiOxHqwJzt+5PkAsIrJCK3CD8ze2A24DhvvDkZU5jeTdNJdnEK9Ib+ALWNpRTzdje/f/2Ljhi1TCTvjPz1bgDeCT+JLWyUocQfIdo5XTJJa1gQ8BP8C6FkNcWFqB22NWQqRCGrBPAaHO1anAOcB+2EBBCWBXku+QdzKIV8pvbeBjwLnA37Dv86EuIp3LvpHqJFJFR5LeuTsduBl7KPgosHqcKpXLSHw7YUT8kKVk1gWOAn4FvEh6F4zO5UHsLUVE0tEbeJZ45/TTwKXAp1AvQU0asFwASRt8//ghS8E1YVn7vo9lDIt1cehYWoDt066oiPARsjnHlwOPAmcDO2KD3qUL95O8kc/MIF4pniZgZ+ACbFBPFheEjuWn6VZXRDq4luzP+RlYL+OHgV7pVrdYLiJ5o2oQlXRnc+CHwNtkfwFoL88CA9OstIi8x5rYN/usz/328hrWMzA+zUoXxZdI3pDz0LLA8l6DgK9i+fWzPtE7l5nAhulVXURWYmtgAdlfAzqX+7ExSJVNOrQFvgbcNX7IkkNjsRG575D9Sd1VWYJvxUAR8dkfWy0w62tBV2U29olyTFqVz6sm7E0+acN9N37IkiM7Ytn0Wsj+JF5ZWYaNDBaRbB1L/q8VV2GfLyvjdpI32KMZxCvZ+wBwB9mfsD2VRcBBKbWBiNTv8+S3J6C9tGAvNpWYLXQ6vsZaL37IkpGdgHvJ/gStpbwCTEqnGUTE8Yae5QAAIABJREFU4QPYmJysrxG1lJuxT+WltQO+BvpG/JAlsgnANeS7+65juQYtJCKSZ2sBfyH7a0UtpQW7ppRy7ZAmfIO3psQPWSIZCvyM/HfZtZfngQNSaQkRCa0BG5/zKtlfO2opzcD/UsKpxNfga5jN4ocsKWrCpogWpZvuGWw6T580GkNEUtUfOAaYRvbXklrK69gqhaVJJ/4pfA3yw/ghS0q2wAZ3Zn2S9VTeAC4BdqNEJ6JIhTVhi3T9mmK8fNxFSXKLrIqNmE7aEDOAftGjlpD6Amdhc+azPrE6l/nYAj4XAZ8DJqKbvkiZNWEJhL4M/AL71Oy5R6VVFmLj4JrSaYZ4vAMyPhc/ZAlkW8Ku3+0pLcC/sZv9p4FxaDEPEbE8/hsDnwUuwz79ZX29ai9/b4utsA7H1wD/Rm9lRdMEnEL2b/3TgcuBT6DR+yJSu7WAzwC/xXqis7yOLcR6LAqpP77lgVuBD0aPWpIaiX3DyupkeREbUTsJPTiKiF8jsAuW1jfLmQV/pqAvMp7VAVuBh+OHLAnsC8wi/okxC/gxStAjIulqwJYhvwSYQ/xr3WtYjp1C2RZ/xfePHrXUqgE4DVhO3JPhduAQbKChiEhM/bHxRA8R97rXDBwdoX5BeaeAPYYGbeXRYOJm3loA/BzYNEblRERqMAmbZthMvGvhryjQksOfxl/ho6JHLd0ZgT2YxTjY52Hf4NaOUjMRkfqtiS1hvoA418WH2v5m7vXBMh15KjudEqZLLKhtgTdJ/wCfiy0stVqcaomIuK0BnIeN4E/7GjkV2ChOtXxOwV/Z/4setXR2IOkf2M3YG//qkeokIhLaCGzAYNrrnrwLTI5TpeQG41sgqBVryG1iBy7/cSTpH8zXAetHqo+ISNo2AW4j3evmIuDDsSqU1Kn4K/oPoHfswIXjSHfp3qeBfaLVRkQkrkOAl0nvGroUW4Mnt1YlzFzxs2IHXnGnkd5BuwT4Nlp1T0TKbwBwPulNm16OrbqaW9/AX8llWEIGSV+IsRsrK49gi/CIiFTJjlivZxrX1Rbg8/GqUp++WMpWbyWnAcPihl45IR7WVvYAdya2EIeISBWtAvyEdD6tLsfGbOXSIYSp5C0oQVBajiWdm/80LLe2iIjAh4C3SedF65OxKlHv4it3A7sG+LtnYd+oJZxPAL8h/MPVTdgKke8G/t2qWwUYjy1zPB6bfrQq9r1xADYDByx/eQswE8vj8DKWn+Mp4FnsgiHvtSrWpuOBCdjU1NVY0baDsHEsC7DjegGWv+JZ4Lm2f74aPWopmnWAa4CdAv/uUuwB42+Bf9dtI2Ax/qecFnI+8rFg9iB8SsvlwBmotyaUkdhypb/EEoGE6EJcBEzBuiQPBIZEq02+jMeWX70GW3wlxPE/H7gXG+w6Ga1fIV3rjeU/Cd0TMA/YOmI9anYGYSq4mDC9CVW3OeFXuZpHAeanFsDmWCKs5wl/geiqLAMeBI4H1o1Qv6w0YJ+kLsafrbTWshD4K/aNdlDqNZSi+TRhXo47lreADWJWohZ9CTcSchawWdzwS2V17Pt8yIPuNWCLiHUomzWBE4DHiXNjWllZDtwJHEp5cnCsj72AhBiQ7CkLgCuBvVEPmaywC/apLuSx9hT2SStXtsW+U4So4BvYd1CpTy/gDsIebI9R7jfHNI0Bfop1y2d5c+qqvIZNDS3q+gwTgd+RfkbLJOXf2OdMzY4RgA0J3+N3Azl80AyZaOYVYL244Rfe+YQ9yO5lxcAzqd044ApsUFnWN6OeyjvAydhAuCLYFlu6Os1slqHKC9g87rL0tkhyaxG+B/CcqDWoQRNwP+Eq+Bo2Yld6dgRhD66bgf5Ra1B8/YHvEXc98VDlDexbdr2zgGIZDlxGMW78ncu/0JRZsQG5DxD22PpY1BrUYAxh0gS3l7ewgVOyctsQtpv5zyilb70OIPzYiyzKXeTrobsRe4sOeU3JorRgvUJrBG0dKZoB2NT5UMfVbHI4KHBfwuZInoMNrpH3G0jYAVA3opt/PQYDV5P9DSZkWQx8IWQjJTQCuIfs2yNkmQV8NGQjSeEMImxP+SPkcEpq6IVnlgKfi1qDYvgF4dr4r0C/uOEX2tbYd96sbypplePCNVXdPgjMWElcRS8t2HgdPWhX16rAw4Q7pn4UN/yeNQJ/JPzJ82N04rQ7gHDt+jDFGQiWB8cQfo5v3spS4k//7AWcSzG/9ddbpqCBzlU2jHDT51uAveKG37P+hH3KaS/3o6lpa2DjI0K05/NY/gDpWSOWZS/rm0es8qcwzVaT/sD1KdUjr+UtcprdTaIYQ7jEVa+Qw1lba2JpTkOfODOwVKdV9RfCtOPb5HAQSU71oXzf+3sqi7FxJmkbAtyXQf3yUOYCH/A3oRTU5tgxEOJYuiJu6LXZiHRWSWrFvoFXLQ3nZwjTds1oelKtBgK3kv3NIosyKUD7dWcdbKpc1vXMsjQDH/c2pBTWRwg3cP6DkWOvyZbYKltpnDyvUJ089UMI1/X/+cixF1Vf4Hayv0lkVdJ8Ox2GpTbNuo55KMuwG4FU0zcJcxy9hCOHS5qJQHbAljNMq0vxD8CJ2PKoZfUT4OgAv/OzQL9Tdk3AVcAhkf5eK3ZDfIoVy9DOxnLNz2n7bwZjAzZHtZVNscF666QU0xZYFrPQBmAPVtul8NtdWQY8gbXp09j02TlY287DPvEMxNIjr8OK5YO3AIZGinExsA82/VGqpQH7xBgiuc85WIbP3NmVcN87uioLge8S57tlbFsRJvf5o+Rw3mhOXUj6b34z2v7OIVjGu6TWx3p1riPcDIV3SSeVbW/glkAxdldeBn4A7E/yT4WN2Ll3IpYoKe0ZCu9iax1I9axKmHUDlgCbRI69ZtuSfmavt7AV2MqSzrYRW9bV2y5zgLGRYy+qr5Pe8bkcy7j4EdKZ1roalsznCWecP00hNrBle9Nq22bgV8AepLNgyhgsz8krKdbhNZQ1sKq2IswD/G2xA6/HROBN0juB2ssbwDfI4fSIOv0XYdrjsNiBF9QOpLOYz1Ls5rRxvKqwF8keHt8B1k4hnk8miKWWsgC4ABiZQsxd6YOdl6FXemsvt5DDFd8kimMJcwztHzvwemwAPEM6J0/nMhfLvlXEt99VgOn42+Dq2IEX1FCs6zj0MXgncW/8nX2U2tcrWATsmUIM40jnE+DVZJcbpBfwNax3LXS9TolYD8mPBsIMPH6SnC9LPRT7rhbjIaAV+353F7Z6XlEy352Iv95vYCOupWd/JuwxNws4nHystDcAy7TXXRfjc9hnutD6Af/s5u8mKS+Rnwxo6wC/J2z9lqKpulU1mjAPlV+KHXi9+mIJDGI9BLSXBcC12PzbvA4aHEiYHAoHxA68oEJ3Tz+AjdTPm9HAt7CH4WexsQJXYfVP643hDMK27Z+wabF582XCrs75LBq0W1Wfx3/8vEZB1nj5Ctmtpd6MddGejE1LSmPkcxKnEOZCKT0bjPWUhDqmfkx+jqOsjSXcTXE5NkAzDz0qK7Ml8CrhjqVT44YvOdEA3Iv/+DkmduBJbU/YEydpWYg1/PexzHtbY9/iY1oNG4jlqcc84g2KKrofEebYaUHfbjsLNeWvGeulKIJRhEtytBAtHFRVm+IfkPw6NfYC5OGpejg2TSiPuf7fwAaIvYJ1zc/CbtKLscFNywP+rX2Bo5y/cRJwXoBYym4LbF3tJufvtGJdwD93R1QeB2Pfxr2asYGMtwT4rViGYcnPtgrwW9ejT3lVdS42m83jWKxXsjCOwN5gs+4NKGp5EX07rNV1hGnzk2IHnnMNhMnzv5wwGdKyMJxws53SXpdB8mkQ/mnz08j5jICujAXuIPubaRFLrPS1RbcpYbK7/TB24AXwUcIcy1+JHXhg6xMm78l1sQOX3PgK/uOnkA/RDcBnST97YJnKfeTjc04R/AZ/e9+F//NBGf0df9teHj3qdOyOP5V3C0oTXFW9sDUsPMfPQ9GjDmgN4FLCLZtY5jI5WRNXzgb4L8pvk95CPEW2F/7j+EnKk84b4HT8bfK76FFLXhyK//jZMXrUgW1J3ORBRSt3Jm7Z6jkbf3vncbBqHlyLr12XYoMzy6QRewvztEszvkWjpLgagX/jO35+GT3qlHyE8JnFylB28zRqhTTiT/l7ffSoi2EI/gVNyjqmIsSqnlrKu7o+ju/YWYhNMS+FBuAgbL3yrG+8eSj3+ZqzUvbAfyJpbnbXvoSvbV/HlkYtqx/ja5+H44csOdGIZYf0HD9fjR51yhqwlY9uI/ubcJblIG9DVsgV+Nr6R9EjLo4H8LXtsfFDjmpN7AHS00YTokctefFlfMfOP+OHHM/mwGXAfLK/IccsL6CR6LVqwpdlsZl85vjPg7XxTat8i3IN/FuZC/Cd7yfHD7lLa2OZUncEdm379zEoDXaa+gMz8R0/m0aPOrJVscUUkqyFXsRyXJhmq4Rt8LX15fFDLgzvgkpVSaM8EhvomLSd/hY/ZPoBH8KWVn+I7nsxlmDT1n6JpVNfK4N4y8w7gPms+CFnZyz2xPwo2d+o0yiLyOfKaHl1Er723jl+yIXxC5K36zKqNaXyRpK31QLiZfrcGrgEX2bWZcBNWGroxkhxl9l6+KbEPx8/5HxYHxsEcT3l+UxwZdAWKr+bSd7WL6AkS915keRtW6Q8/yF8At95v1vK8W2N71xZWXka6ynSeeTzV3z7YZv4IedLHyxpzqnY03hRsw1ODtsspdaE78HvO/FDLowR+I7jI+KHnKlV8B2L30oprsHAT0k/6dpdwEYp1aEKDsHX/mfGDznfGoBxWDfV6Vgyk3+R756Cl9GTdD3Wx9feu8QPuTD2IXm7tmADyqrG84Z9dQrxbANMdcRUb1mAf9XTquoLvEvytn+s8w8WbrWgwFqB59rKHzr9/4Zjo1vXBYZiS322/xNgANajUK+18N1Ursbiltp4pk8tRHOwuzPese0z2HLbVXMHtvR3Ep727sph2ADXmKuI9sdSvG8DHEPYJdXLrhlbIOrIhNtvjvXavRYqIKnfCfieoLeMH3KhHU/ytr4tg3iL5Kckb9sLM4g3Dybhe3sONaDuWMKsiukpvyfZS1SVeXrdWoEvdvwxjc6Mb7Jj2+fpohtHuuV5a/p3sCjKydO78mSwKIrlKZL34PXHphN6fR6b2pf1p8SDsR4I3YdqdzuW0ySpD3T8H2r4uJrwdf/fECqQCvEk8Hk2WBTl5GnbZ4JFUSwL8HXBehNS7YX1vmR982/3SWyOu9RmGb7ZM7vRYd/rASCuLfAtzHBjqEAqZJBj2+eCRVFOattkPHX3rJkwElteOG8ZRE/CEg5JbTwvgqsDG7f/Dz0AxDXZse1c4J5AcVTJQMe2s4JFUU5q22RmOrb1PHRdzIpBzHnSgH0K0LLHtbkF6wlIanL7v+gBIK7Jjm3vxlKJSn08F8x5waIonyaS5/BvwWZYVJXnuEp6PB9G8tkHMQwHzsk6iIJ4F8tym9RO7f+iB4B4GujQ8AncFSiOqvG8pc4PFkX5DCD5d+T2PBtVFfsBoC/F+M5+FDZVTXp2t2Pb/2QE1ANAPKPw5e+/K1AcIiF4buB5GYCWFU/9WxJscySW0yTvGqjO4lBengeAsVhOGz0ARLSZY9u5wOOhAqmYLLpbq2AByR8CPL0HZeA5rurtlWrAEu6ENAN4BHgAmEbY3pxDgNEBf6+s7iPZwyDYMbEl6AEgJs8DwD9Qxqyk9ACQjhbsISCJRuwhoKpijkuZBGzi+HvtFgI/AiYCa7T97k7YKnUjgK8B0wP8nUbg8AC/U3Zz8U1T3gr0ABCT5wHgkWBRVI/nO/7qwaIoJ7VtMms4tq33AeBQx99qNwWbwnwctlZKZ9OBC4ANgSsC/L3DAvxGFXjuCxNADwAxeR4APCM+q26uY9vQudfLRm2bzDjHtvW2+d6OvwX2rXkPaltPfiHwWfyj+TcB1nH+RhXoAaAg+uK74D0RKpAKmubYtso3qVpMc2xb1bZdFd/NbVod/+1QOiR9SeAN4GPU39NzCv6spZOd21eBZ1zYeNADQCxjgN4Jt10GvBAulMrxfCfz9NpUgdq2fps6tp0PvF7Hfz8O3zX+VGzAX71asc8FzY6/PdGxbVV40mkPA1bXA0Ac6zq2fRFYEiqQCvLcpLYDVgkVSAl52nZyqCAKZnfHts9R34h7T9rxmcCvHdtPxdcLUNUeonq8hSUFSmq0HgDi8DwAaEEaH0/79QV2DBVICXnadgP8C9sU0R6Obet943vT8bf+ij/z6HWObUc4/3ZVeM7BkXoAiMNzME8LFURFvQrMcWy/T6hASsi7XHLV2nYQvgfKetv7SZK/IV6fcLuOnnJsqym4tXnZsa0eACLx9AB4lg4Vm6/uWUTpMDRWZmXexPcdsmrzvQ8G+jm2v6vO/34p8JsEf2cGYVYe9axbn3Sdiap51bGtHgAi0QNAtu5wbDsC2DNUICXkadtdsEQyVXGEY9t52Hz8ep1F/asPnkqYdTA8yZ60EFdtPPeHNfUAEIfnAaCeUb/SNc9NCuBzQaIoJ0/bNgD/FSqQnNsQ2M2x/T0kWwL2LSy9bq1ZGy/Clg0OYYJj29mBYig7z/3BszaN1OF5bPRuklLV6VIhNWAXwqT7YBm+5C1lNhxLU520bd8FBkePOr5LSd5GrcAJzr+/BZZPZGW/Py/A3+jsgm7+Xk/lmsCxlNWeJG/j+zKIt5JeI/lO0mjYMC7EdwG+PH7IhXE7vrYt+wpwo7GpvEnbp4Uwq/k1Ah/F0vXeDzyGDfY7Hl964q70wt5Ok9b5tMDxlNVWJG9jzyBNqcNMku+kKi+aEtIO+G5SS/ElcSmzz+Br21mUe22AX+Frn7uiR+x3OL46fyR+yIW0HsnbWJ+XI2lfOrXeohUAw2lgRSKVpOUeqr2M7coMxAaNedr2suhRx7Eb9gbvaZuijZPoh++z51J8SYyqZDjJ2zlJlkepUwPJLwCLM4i3zE7DdyFuxRY7kff7Nb52bcFmBZRJX2zuvqddFmLrBxTJGfjqfFfsgAtsVZK3syc/itSoH8l3kGe1NXm/dbGHKs/FaQ42olveayf8D1fTsAVsysIzCK69XBI9ap9x+M+xr0WPurg895dFGcRbOUNIvoNmZRBv2V2M/6L8D3wJXcrqTvxtex3l+MxyEP6u/2XA2NiBOzRiywd76rwY69aW2jSSvK31iTmC1Ui+gzwLPUjXNsC+MXpvVL+muDeq1bBFaT4G7AesGeh398Lfrq1YF3KRTcTmsXvbIUkWvyx9A3+dfxc96mLrTfK21iJzEaxC8h20MIN4q8D7vbq9fD924E4bAtfy/ilpLcDfsJkSXg8Tpm2/FCCWLIzBN/2tvSwHNokbustE/F3/rcDWsQMvuAEkb+sQ2R6lB00k30FJMn9Jz0J8p2wvRZmvfCj2QNnT8fY/zr8TqhdgGfApZyyxjcRWZwtR/ysjx+7Rj+6TDNVaQqw/UDVDSd7e+sQcyTKS76SmDOKtgjMJc6FuxQZ75Tmt9qHUdwwe4/x7V9fxt7ory4HjnLHEsjHwCmHqPRtYK274LiEGO7YA28YOvATWJnmbT88g3kpKmgeglWqkSc3CKsBUwj0EXI3Nh8+bA6k/C91CbKxEUutiM1hCte33scxyebUn9jYVqr7eB7CYPoh/sGMrxerxyJMNSd7mL2UQbyVNJ/lOWj+DeKtif8JdtFuBp8nX2g37A80kq8v5zr99fMK/u7JyL/lLi92EDVj09PB1Lv+gOL1+a2JLQnvrvBD7fCL1257k7f7PDOKtpH+RfCepWyxdVxD2RrUQOBEbnZul4/DNdnjR+fd7YZkTQ7btDODT5GP2xUb4p7x1LouwRXuKoAG4iTD1/kbk2MvkQyRv99sziLeS7iT5Ttovg3irZAC2KEbIC3krNihq14j1aLc6tpKaN/4W/LkORmA37dBtexfZjZAfAJxD8p6V7kqRZj4cR5g6/53i9Hjk0WdI3vZXZxBvJf2e5DvpMxnEWzWb4hun0V35G7514GvVC/gc8HbA2PsHiCvUN+LOZTlwFTb9LIbB2KqFaTzQtLbVpSg2J8wsmma0wJaXJ/fCzzKIt5IuIvlOOj2DeKvos6RzYW8vDwJfIPwiJ/2xG3+o6Wft5e2AMX4vcGwdSwtwC3AYNrAztG2BH2FJudKqw7MUJ9//KsCThKn3tyLHXkY/JXn7fyeDeCvpVJLvpMsziLeqvkN6F/n2sgj4E3A09h05iUHYuu6Xkt6N6dqEsXWlEfhtSnF2LHOw7HmfBUYnjHUg9tntPGxQZ9oxT8eWdC2KnxGm3o+T/TiZMvCMw/hCHgbTVMHhWPa5JO7C0rZKHBcBX4z492ZgYxCexZYrntNW5mI3zoHY2+EobEbIlsAE0v9uujthV2XrA1wP7B3wN3vyGvAMK9p2PjAPm2ffH2vbgVjbju9QYt2Y5mCfhx6P9Pe8DiDMWg3NwHYUp9559jR2PUgi5rlYaZ6V0l7JIN4qawL+QPpvfnkuSR9WezKQcKmCi14WEWdsSCjrEG78wwmRYy+rJuw4SroftKppJOuSfCe1EP67sXSvD7YoSdY3iSzKFNJNaLQaNqc/63pmWeYD+3obMqJG4FbC1P1v5DtrZpGMJ/l+WA70jR9yNTXie1LbJX7IldcI/ITsbxYxy3PAGiEarwerAH/JoH55KG9RvAVvvk6Yus/AehIkjENIvi/UsxzZYyTfWUdnEK+Y08j+phGjPI99C4+lFzbANet6xyxTKV6361aEy3nw0cixl923Sb4vbskg3kr7Jcl31sUZxCsrfBwbsJX1DSSt8hTZvJk1YN+D00iqk7dyC5akqUgGYIMoQ9Rf17DwriP5/jgvg3grzdON9kQG8cp7bQA8QvY3ktDlVmBYwHZKYjtsYZKs2yKNshQ4mWJ+976YMG3wDPYwIWF51mE4IoN4K21vku+s5WggYB70xZY+XU72N5YQ5QfkZ5W9IVjugazbJGSZBuwcsI1iOogwbdBM8cY8FIFnFcBWirPmRGmshW+HaU2A/NgeW7Ut6xtM0jID+FjwVgnjw4RdpjmL0oxlPyzqW+9Iwi1v/D+RY6+KI/Edn5oBkAHPhe27GcQrK9eErds+m+xvOPWUa4kz0t+jP3AWxRwbcAfJMzzmQW/gfsK0xZ0U89NHEVxC8v3yUAbxCpZgJelOm5JBvNKz1YGzyf8gwSexTG5Fsh7wc8IsPJN2eQDYP51miOpcwrTHO1hPgqTjFZLvmx9kEK9gy30m3WnLyf+bW5UNwRY3mUn2N6OOZRrWXVjkJVfXBc4nvRUbPeVOYM/0qh7Vhwi3cuPHI8deJZvi2zcHxQ9ZADbDt+M+HT9kqVN/bO2HvwLLyO7GdAdwMPkZ5BfCUOAr2MqKWd7038DeojZPt7pRjSLcw+slkWOvGs8SwK3AmvFDFrDvYZ6T7HfxQxaHdbGT9V5gCenfmP4JnAFsHKFuWRuHrd74KHFmZUzHcnnsR7F7U7rSG/uEEaKdnsQegiU9d5B8/zyTQbzSgSfH/FzSWfNc0jcAy/9+LvYG6x082IKtBHYF9mmpSEvKhjYUOBD4MTY7w/upYDk2YPf3WI9DkQf11eI8wtz8F2K9nJKeNfH1LJ7f8ce0HHB8R2BvEkkdDPwxUCySrbWwpTzHAyOwRXgGYDkfBmEn+iJsgOFibODPtLbyPPYQIe/XgHVpj8Padh2sXQdi7ToYu1nNxx4WZreVF7D1EJ7FZiBUwYewdRlC3Au+AlwY4Hdk5b4C/NSx/b7Y50nJyBr4uiyvjh+yiJTQSMIt8fuHyLFX1T34emjUg5wDnpSy87G3GBGRpEJ+95+GzYKRdI3A9/J4Y+cfVJKGbPzZse0A4LBQgYhIJZ0N7BDgd5YBnwLeDfBb0r2j8N2zrwsViPiMw/fEraRAIpLUfoSb739y5NirqhHraUm6n5bSxWqUGgSYncfwLciwVdtviIjUaiR23QixAuRcbEBad2+ljdigy+70wwa5voYNUJuC3bRkhX2wJaWTugWtJ5MrJ+N78tb62iJSj0bgbsK8+adZHgK2SakNiurP+Nr0s/FDlu6sj68bbhFKDSwitTuG7G/u9VzfDkynGQpnPL7Bf4vQcvK55Mno1IplQhMR6ckQbKBe1jf2espCYMs0GqNgLsbXjr+NH7LU4jB8O3YGSrspIj07lexv6EnKvWk0RoGsib3Be9pw9+hRS0364l+A44ToUYtI0TxF9jfzpKXK6YW9aZqfR4P9c+3/8O3gt7AUpyIiXRlAnAWT0irHh2+SQlgb/7oW/xM9aqnLhvhPTu1kEVmZ4WR/E/eU/wvfJIVwAb52W0gXc/8lf/6Ib0fPQqM8RaRrvfF/R86ynB2+SXJvFP59dlH0qCWRndBTsoikx7OITNalinPYr8LXZsuxjLNSEA/i2+FLsPmiIiKdHUn2N/IkZSm2bHaV7Iw/VfOfokctLgfiP1net9qTiAg24+h5sr+h11uqlvG0Ed9qse0lxEJPElED8Cj+Ha/sWSLSlc3xjyqPWV4EhqbSEvn1FfztdlP0qCWI/fHv/NfRgEAR6dok4BWyv7n3VJ4CNkipDfJqBDAHX7u1oHUUCs07FqAV+Hn0qEWkKFYDTgGeBd7BvrNnfcNvL28Bp2O5C6rmL/jb77p6/qAyBOXPB4Bbnb/RCuwF3O4PR0QqoB920+24dO8qbf/3doNZ+dK/ffDdtJdiPROPYyPYq+aTwG+cv9GCrZ3whD8cydIN+J8EXyPMmt8iIpKeEVguF+81v2oDJktrLLAY/wHxx9iBi4hIzRqBO/Ff6+dSvemSpfYDwnxT+1zswEVEpCanEeY6//XYgUu6VgPexn9gLAS2ihy7iIh0by9gGf5r/LPYGAwpmU8R5unwZWxBEBERyd4oYAb+a3sLNnBcSuomwjwE3AI0RY5dRETeqx8whTDNqsxSAAAWuElEQVTX9Usjxy6RjcIGeIQ4WJQfQEQkOw3AlYS5nr8JDIkbvmThGMIcMK3A8ZFjFxER87+Eu5Z/PHLskpEG4G+EOWiWo/UCRERi+yLhbv5XRo5dMrYOYQaNtALNwH5xwxcRqayDCJdy+RXU9V9JHyXcE+QCYNe44YuIVM7ehEns1t6Du1vc8CVPLiLcQ8BstHKUiEha9gQWEe6afXrc8CVv+gJ/J+xDwE5RayAiUn77YYnYQl2rb0VTuQUYSZgsgR0/B+wdtQYiIuV1AOG6/VuBaSiZm3SwJ2HSSLaXRdgYAxERSe4owl6bF2LL/Iq8xwmEO8hasYP2uKg1EBEphwbgTMJek1uwlPAiXfoxYQ+4VixjYK+YlRARKbA+wK8Jfy0+LWYlpHiagBsIf+DdiOaaioj0ZG3gPsJfgy+PWQkproHAo4Q/AF8ENo9YDxGRItkFmE74a+9tQO+I9ZCCWwN4hvAH4gLgMxHrISKSdw3YuipLCH/NfRgYFK8qUhbrAlMJf0C2AtcCQ+NVRUQkl9YAried6+wTwLB4VZGyWR94jXQOzmkofbCIVNeHgLdI5/r6LLBmvKpIWU0AXiedg3Q58CPURSUi1TEM+CXpXFNbgeewBG9RNcT+gzXoA4wDxnco6wMDgMHYjWdA23+7AJgHzAHmY93fz2KN2f7PJRFjz5MNsIEkY1L6/VeALwM3pfT7IiJ58EngfGD1lH7/38BewJsp/X6u9QJ2AL6J3bBC5k5eiOVPPgXYnurNbR9BOgMDO5bfA+vFqpCISCSbYPePNK+fU6jgN/9GYDJwGfb2nmYDdyyzgUuw79h57P1Iw5rAY6TbrouAs7HpiCIiRTYM+AmwlHSvm3cBq8apUj6si6VKnEa8m/7KykvAd4B10qxwTgzCuurTbtM3gGOxFQtFRIpkINYT/Q7pXyuvpELXyfWx9LIhV0cKVRYDF1L+buxewEXEadNXgS9h4zlERPKsP/B1YAZxro9nUpEe6NFYfuS0u1JClKXYKM/oIzEj+wZhV6rqrrzW9vcGR6mZiEjtVgfOIN6Nvxn4bIyKZa0PcDI2Sj/rG3u9ZT5wEuVOw7gPMJN4bToH+AEwNkblRES6sQnW6xtywHktL0Pbx6hc1nYHnib7G7m3PAnsFrht8mQM6awf0F1pAW4HPkGFvn+JSOYGYG/fDxD/XnIXFUjw0ws4F7vIZ33zDnnDOpvyTh9cBbiUbNp2JnAxsCe2oqGISEh9sMx9vyLubLOO94/zKO/94z9GAfeT/Q07rXIvNqe+rD5OnJGvKytvYV1yH2ZFkicRkXoNBg7GpphneU2bDuydcl1zYS/ifk/OqszA3lbLaiTWVZV1Oy8G/oaNyt2Oco/FEBGffsDOWLK3u8nHgPM/k17WwFw5DBvZmHWDxyrNwKFBWi6fGrFR+zEHx/RUFmAPJt/Feio2ogJdaiLyPr2BiVhq3vOwXuc8TS2fDXw+tdqnwDMX8Vjgh9hNo0pagOOwTFFltQH2fX6PrANZicXAU9jaDy9hiaVexrrdZrWVBVkFJyKJDMSy8K0OrIXlZlkPG7A8FlvkLK89gn8Cvopdgwoj6QPA6dj8ySr7FpbQoawasFGz5wFDM44licVYiuI52EPbEvRQIO+1DMteeRdwFTYWJZYG7PPpR7FeraqtrjkI68nr1fbv/SnmzKDpwDHAH7MOJJZjyb6rJS/lq862LILhwM+IlzxIRSWLMg8bdxIjQ9sE4OHI9VMJWxYD51DwB7d6D/ZPYpn9YnT7zwPuAZ7AlvZ9BhuIN48Vb3IDsB2wBnZSjce+Ee1CnB3TgrXJ1RH+VtY2w5bEzOtnAZEQLgU+l+Lvb4OtMLdain9D0nUd9rD4YtaBxLQ36Q/4m4ot0ONdurd9ieEzsW/EacbcTLlnB3R2APA42T+Bq6ikVY4hHUOA13NQP5Vk5QEs0V3ljMIGVqXRqMuxN+i0luhtaPvtq9v+Vhp1mEG58wR01ojNhniK7E9KFZXQ5R3SeUP/Xg7qplJ/eQT4YBf7sxJ6k076xOXAFVi3fSwTsAV/0ngQuJfqTU9rAg4H/kX2J6mKSshyJGE1YgPGsq6XSu3lYWyQZiVW7luZcwnfsFOASTEr0cm22FNd6HqdHbMSOdIA7AvcRvYnrYpKiHIpYW2Ygzqp9FyWY4l8du16N1bLHoTN7d8MnEA+cr83ASdi08NCHjy7xaxEDm2JXTznk/3JrKKStNxIWDvnoE4qKy/vYrldJqxsB1ZNH8J+430ZG5iXN9tgozlD1fNJ8pusIqZBwBHYiOesT24VlXrLbwlrYg7qpPL+8gjwBbQGyfucQrhGvp98J5MZRthxDifFDT/3NscGQE0l+xNeRaWW8k3CGoAlpsq6Xir2Yns6ccefFcoYbK59iMa+EcvylHf9sVhD1HketriOvN+2wA/Qw4BKfksLlp0vtD/loG5VLU9j64lM7HEvCVcSptFvoFjd4b0J9xBwRdzQC2k88DXgFvR2pJKfErr7v91WpDcVWeW9ZT42mO/L2Aut1GgDwqR9vZ9ivPl31h94EH/9l2ALWUht+gOTgVOBm7CVtbK+iKhUr7yAfRJMy3/noI5lLDOwG/5JwE7YGDZJ4GL8O2Mq+f7m35Nh2Apz3na4MHLcZdIIbIqlWj4Heyh4lewvNCrlLVOIk9DrRPKxbn1Ry1TsZt++RPh4Kj5XP6nOjTYCGxHveXpagk15meL4jTzYDkvu4/mE0Yz1qLweJCIBGMx7lwldD8tUOaxDGU71lqmWZFqxkeC/AC7Hej9j2Ag4GfgwWheg3TJWLOc9s628gqVzfwl7KXsJ696XADo/AHwXG/3vcQLwQ+dv5MWJwPedv3EWcFqAWKQ+Q9r+ORh7GOiDpvrIey3EepWyvKH0AtZsK1V6i52P9YIsB+ZiAy/nZBpRxTViT1uerplHyEeSn1Aa8S/bOQ29jYqISI7tie9GtxzrNi+bbfAPitwtetQiIiI1ugLfTe6y6BHHcwW+tgmdV1xERCSI3th3mKQ3uGXAuOhRxzMeXy/AbKq3UqCIiBTATvjecH8XP+TorsLXRnlcB0FERCqqfXDans7f+ak3kAL4mXP73YNEISIiEtCdJH+zfYlqTF9pwLdq4K3xQxYREVm5fvjysJ8RPeLsnEnydloI9I0fsoiISNc2x/dte1L8kDOzA7622jR+yCIiIu/XiG9N5DnAPwLFUgRTsNkSSWn9aRERyQXvA8C9WAKgqliG1TmpCaECERER8fA+ADweKpAC8dRZPQD58kFsCutLwDzgNeBG4AiUt0GkVjqPCuw+kn/TPjyDeLN2BMnby9N7IOGsAdxG9/vqKWCTrAIUKQCdRyXwBMlvaNtmEG/WtiN5e1WxxyRvhgMvUNv+mgNMzCZMkVzTeVQSL5H8hjYmfriZW4/k7TU1g3jlvW6kvn32IjZVVkRW0HlUEjNJfkMblkG8WRtO8vaakUG8ssJuJNtvx2URrEhO6TwqkWaS39D6ZBBv1vqSvL0WZxCvrPBzku23h7IIViSndB6ViB4A6qMHgOL6B8n221KgKYN4RfJI51FJNGLTNpIaFCqQAvHU2dPW4rd6wu16AUNDBiJSYDqPSqIRmO/YfmCoQApEDwDF5Xn70HxmEaPzqCS8PQBrhAqkQDx11gOAiIjkQiPKbV+vcY5tPW0tIiISTCMwzbG952ZYVJ58/i8Fi0JERMShEXjGsf0WoQIpEE9Gq2eDRSEiIuLQiO+mtCvVmtbRC9jFsb3nYUtERCQY7wPAYGDLQLEUwTZYnZNSD4CIiORC+wNAs+M39g8USxF80LHtYuD5UIGIiIh4NGI3pgcdv3E40BAmnFxrAD7l2P5+fA9aIiIiwTS2/fNOx2+MBXYIEEve7QSs79je08YiIiJBtT8A3OH8naO9gRTAV5zbe9tYREQkuD5Ykpqki9wsw3oCymocVsek7TMbpcDMg+kk34drZxCvSB7pPCqJ9h6AJcAfHb/TBJzsDye3TsY33fGP2AOEiIhI7uxJ8qe6VmA5sG30qNO3Nb63/1ZgcuygpUt6cxHx03lUQo3AK/hudFNY0atQBo3AQ/jaZBrlapMi04VLxE/nUUl0vDG1AFc6f28b4KvO38iT44DtnL9xJda2IlK/fbFz6EVsLM2rwF+AT6NxNSJBjcTmqnveeBdj3eZFN4kwbTEiduCyUnpzKY7VgVvpfp/8G9g4qwArTOdRiV2C76bXCrwADIkdeEBDgan42+Gi2IFLt3ThKobhWNbMWvbLbGCzbMKsLJ1HJTYW/6C3VuAeYJXIsYewCnAf/vovBdaLHLt0TxeuYriB+l84+mYSaTXpPCq53+C/AbYCf6ZY3+l6YTGHqPsVcUOXGujClX+7kmz/HJtFsBWl86jkRgHzCXMj/AvF6AnoC1xLmDovAMZEjV5qoQtX/v2cZPvnoSyCrSidRxXwTcLcDFuBe8n3mIAhhOn2by8nxQ1faqQLV/49SrL9sxRNt41F51EF9AWeIdxN8QXyOTtgG2yKUah6Pgn0jloDqZUuXPn3Ksn30eoZxFtFOo8qYk9sDnuom+Ni7FtdHp7UG4Gv4Z/q17EsR1n/8kwXrvzTPso/7aMK+T7hbpDt5VGyTRu8BfBAF3F5y/diVkLqpgtX/mkf5Z/2UYX0Bh4k/M1yGZZzYIN4VWEscClhpjl2LvdRrBkPVaQLV/5pH+Wf9lHFjAZmEf6m2YoN3rkS2DGl2BvafvtK0rnxtwIzsSyKkm+6cOWf9lH+aR9V0D7YssFp3EDby/PA6djAPM/yu01YKt8zqD2jWNLSDHzAEavEowtX/mkf5Z/2UUk01PnfHw78KsF2ScwG7gaewGYjPAfMAOYCc9r+m8HAqtjo33HABGAisBuwWoQYW7A2+V2EvyV+00l+AVoHeCNgLNI17aP80z6qsKNJ9426SOV4Z1tKXHpzyT/to/zTPiqJJNPxfgqcGTqQAvo28MOsgxAREUki6Xz8b2Hz+au4zn0r8A1sfIGIiEgheaat/Rh4B7ic6mS+WwIcib75i4hIwXkz8v0G+DD2IFB2s4D90c1fRERKIERK3r9imfXuD/BbeTUFm1Z4W9aBiIiIhBAqJ/+rWA78b1OucQGtwI+AnYCXMo5FREQk1/Yk7CqCWZWngN0Dt41kS9OX8k/7KP+0j0oijVX5bgc2w1bam5/C76dtIdaTsSVwZ8axiIiIFNIY0s3BH7IsxbIcjkqjISQX9OaSf9pH+ad9JHUZA1wALCL7G33n0ozd+MelVXnJDV248k/7KP+0jySRUcD3sEGDWd/4XwHORqv4VYkuXPmnfZR/2kfi0ogNFvwltrjP/7d3P792zGEcx9+C9CYqaFJh03MUISGpxKI2isai/AUiETtEWPsX2HZh3Qg7aUSECCkLiwqCRP2++oOVpqru1VZIWMy9QdW9c2ae78z3Oef9SmZ573fmnDyf55kzZ84M1fTPAAeAvZT5/oPqZnDVz/eofr5HCnMZcCfwDPAWsZcJfgc+BJ6leWTvloGOSXUyuOrne1Q/36M50eengKP8AXy0tj0HLNE81veWte1W4AbgSmArzeN/r1r72zM0nyCsAivAdzS3IH5F8/jgL4HzAx2HJElp1DAAXOg88MnaJkmSCvA6uCRJC8gBQJKkBeQAIEnSAnIA0Fjup/kBpmXgZ+AH4DXgUer8bkopD9I8YvoozevwPfAK8DBw6Yj7pRyso4Z1JCWwDXidjW8V+gK4vcDaNd2+dC3NczM2WvNT4ObgdWtX03tUM+uoYR1JSVwNHKFdUPwC7Alev5bgmtLcstpm3VM0t8Iuilreo5pZR40p1pGUxkFmC4tVYsOrhuCaAsdmXPsL4PKg9WtXw3tUO+vIOpJSuYtugREZXmMH15TZQ2t9ezxg/QzGfo9qZx1ZR1I6++keGr8C9wXsw5jBtYP2H1debHu35/pZjN1camcdWUdSOofpXrR/EnMGM1ZwTel+xrK+neuxfiYOABuzjqyjMN4GqKFs6/n3V9B86zn6C02lTWnOOiY9/88SzbMwtNiso36so39wANBQTgf8j2zhNSUmtAB+o/kIV4vNOurHOvoHBwAN5cOg/3MF8AYx1zJL2gEcIia0AD6g+QhTi8066sc6kkawh37X7iKuZQ517XJK/2uVF25PzXisWfkdgI1ZR9aRlNJmv1xWOryGCK4p8aH1LbBlhuPMzAFgc9aRdSSls53mt7rHCq/SwTUlPrRWgV0tj28eOABszjqyjqSUJvS7j/diW9v7m0sGV9/7k//vuPa2OK554gDQjnVkHUkpjRVepYLL0IrjANCedWQdSSmNEV4lgsvQiuUAMBvryDqSUho6vKKDy9CK5wAwO+vIOpJSGjK8IoPL0CrDAaAb68g6klIaKryigsvQKscBoDvryDqSUhoivCKCy9AqywGgH+tIUkqlw6tvcBla5TkA9GcdSUqpZHj1Ca7dhfbL0Po3B4AY1pGklHYCx4kNiVXgbI+/P1lgf+4Ner3miQNAHOtIUkolwquWLUto7QUOAN8APwEngFeBR4DLCq1Z4wCwD3gJWKZ5HY4DB4GHqP+JqtaRpJTmMbwyhNY1wGtsfBxHgNsKrF3TALAdeHuTNT8GbgpeN5p1JCmleQqvDKF1FfAZ7Y7nDHB38Pq1DAATmjP+NuueAm4JXLsE60hSSvMQXllC62VmO64VYoeAGgaACbM/be9z4PKg9UuxjiSllDm8soTWbrodX+QQMPYAMKH7o3YfC1i/NOtIUkoT4m8hKr1lukVpP/2Os82jZDcz5gCwg/Yf+19se7fn+kOxjiSllOkMJtsZy2H6HW/EJwFjDQATup/5r2/neqw/NOtIUkoZwitjaH1N/+PuOwSMMQBENP/1bWvHfRiDdSQppZrDK2tovU/M8fcZAoYeACKb/3ngkg77MCbrSFJKE+q7lpn5WuXzxL4OXb4TMOQA0Pea/4Xbe7MfbhWsI0kp1XQGk/2M5R5iX48unwQMNQBMiDvzX9+envFYa2IdSUqphvCal9B6g3GHgCEGgBLNfxlYmuE4a2QdSUppzPCap9DaTnxznGUIKD0AlGj+q8AdLY+vdtaRpJQmDH8tcx6vVZZokm2/E1ByAIi+5j/P7791JCmdIcNrnkNrrCGg1ABg85+NdSQppSHCaxFCa4whoMQAYPPvxjqSlFLJ8Fqk0Bp6CIgeAGz+/VhHklIqEV6LGFpDDgGRA4DNP4Z1JCmlyPBa5NAaagiIGgBs/rGsI0kpRYSXoTXMEBAxANj8y7COJKXUJ7wMrb+VHgL6DgA2/7KsI0kpdQkvQ+u/Sg4BfQaA3dj8h2AdSUppJ3CMdqG1gr9M9n9uBE4Q22xXgLM9/v7H4P3p+kCjRWAdSUrpOuAQG4fWMrBrrB1MosQQUMtm89+cdSQprX3AC8BXwGmaM8g3gSeALSPuVybzOATY/GdjHUnSgpoQ/52AMZu/16olSWppHoYAm78kSR1kHgJs/pIk9ZBxCLD5S5IUYMLwz5O3+UuSVIEMQ4DNX5KkAmoeAmz+kiQVVOMQYPOXJGkANQ0BNn9JkgZUwxBg85ckaQRjDgE2f0mSRjTGEGDzlySpAkMOATZ/SZIqMsQQYPOXJKlCJYcAm78kSRUrMQTY/CVJSiByCLD5S5KUSMQQYPOXJCmhPkOAzV+SpMS6DAE2f0mS5sBO4Djtmv8qcN84uylJkqJdD7zDxs3/KHDHWDsoSZLKeQB4EfgGWAFOAm8BTwJLI+6XlN5fNsMXSj7JrBcAAAAASUVORK5CYII=;" parent="8uBbU_594jC50RYXib-e-39" vertex="1">
          <mxGeometry x="16" y="2.5" width="7.5" height="7.5" as="geometry" />
        </mxCell>
        <mxCell id="8uBbU_594jC50RYXib-e-46" value="&lt;font size=&quot;1&quot;&gt;PCCC Industry&lt;/font&gt;" style="text;html=1;strokeColor=none;fillColor=none;align=center;verticalAlign=middle;whiteSpace=wrap;rounded=0;" parent="8uBbU_594jC50RYXib-e-38" vertex="1">
          <mxGeometry x="-6" y="22" width="72" height="30" as="geometry" />
        </mxCell>
      </root>
    </mxGraphModel>
  </diagram>
</mxfile>
